<?xml version="1.0" encoding="UTF-8" standalone="no"?>
<svg width="104px" height="36px" viewBox="0 0 104 36" version="1.1" xmlns="http://www.w3.org/2000/svg" xmlns:xlink="http://www.w3.org/1999/xlink" xmlns:sketch="http://www.bohemiancoding.com/sketch/ns">
    <!-- Generator: Sketch 3.0.4 (8053) - http://www.bohemiancoding.com/sketch -->
    <title>back_top</title>
    <desc>Created with Sketch.</desc>
    <defs></defs>
    <g id="Page-1" stroke="none" stroke-width="1" fill="none" fill-rule="evenodd" sketch:type="MSPage">
        <g id="back_top" sketch:type="MSArtboardGroup">
            <rect id="Rectangle-5" fill="#FFFFFF" sketch:type="MSShapeGroup" x="0" y="1" width="103" height="35" rx="8"></rect>
            <path d="M23.2991066,16.9979505 L28.7409814,19.1530768 L21.6441246,10.4812138 L14.4205087,19.153077 L19.8623835,17.0357684 L19.8623835,26.848644 L23.2991066,26.8486437 L23.2991066,16.9979505 Z" id="Path-92" fill="#000000" sketch:type="MSShapeGroup"></path>
            <path d="M0,9.00776211 L0,27.9922379 C0,32.4148028 3.57540454,36 7.99653004,36 L95.00347,36 C99.4198316,36 103,32.4188675 103,27.9922379 L103,9.00776211 C103,4.58519722 99.4245955,1 95.00347,1 L7.99653004,1 C3.58016845,1 0,4.58113254 0,9.00776211 Z M95.00347,3 C98.3175671,3 101,5.68730652 101,9.00776211 L101,27.9922379 C101,31.3133653 98.3161927,34 95.00347,34 L7.99653004,34 C4.68243288,34 2,31.3126935 2,27.9922379 L2,9.00776211 C2,5.68663472 4.6838073,3 7.99653004,3 L95.00347,3 Z" id="Rectangle-6" fill="#000000" sketch:type="MSShapeGroup"></path>
            <path d="M38.224,14.01 L41.41,14.01 L41.41,23.226 C41.41,23.784 41.68,24.072 42.202,24.072 L42.454,24.072 C42.994,24.072 43.282,23.784 43.282,23.226 L43.282,14.01 L46.468,14.01 C47.026,14.01 47.314,13.722 47.314,13.218 L47.314,13.128 C47.314,12.624 47.026,12.354 46.468,12.354 L38.224,12.354 C37.666,12.354 37.36,12.624 37.36,13.128 L37.36,13.218 C37.36,13.722 37.666,14.01 38.224,14.01 Z M51.166,24.234 C53.83,24.234 55.702,22.344 55.702,19.698 C55.702,17.034 53.83,15.126 51.184,15.126 C48.502,15.126 46.63,17.016 46.63,19.662 C46.63,22.344 48.484,24.234 51.166,24.234 Z M51.166,22.776 C49.51,22.776 48.268,21.444 48.268,19.662 C48.268,17.88 49.51,16.584 51.166,16.584 C52.84,16.584 54.046,17.898 54.046,19.698 C54.046,21.462 52.822,22.776 51.166,22.776 Z M60.562,14.01 L63.748,14.01 L63.748,23.226 C63.748,23.784 64.018,24.072 64.54,24.072 L64.792,24.072 C65.332,24.072 65.62,23.784 65.62,23.226 L65.62,14.01 L68.806,14.01 C69.364,14.01 69.652,13.722 69.652,13.218 L69.652,13.128 C69.652,12.624 69.364,12.354 68.806,12.354 L60.562,12.354 C60.004,12.354 59.698,12.624 59.698,13.128 L59.698,13.218 C59.698,13.722 60.004,14.01 60.562,14.01 Z M73.504,24.234 C76.168,24.234 78.04,22.344 78.04,19.698 C78.04,17.034 76.168,15.126 73.522,15.126 C70.84,15.126 68.968,17.016 68.968,19.662 C68.968,22.344 70.822,24.234 73.504,24.234 Z M73.504,22.776 C71.848,22.776 70.606,21.444 70.606,19.662 C70.606,17.88 71.848,16.584 73.504,16.584 C75.178,16.584 76.384,17.898 76.384,19.698 C76.384,21.462 75.16,22.776 73.504,22.776 Z M80.506,27.528 L80.704,27.528 C81.154,27.528 81.496,27.33 81.496,26.682 L81.496,22.614 C81.982,23.478 83.026,24.234 84.466,24.234 C86.86,24.234 88.57,22.38 88.57,19.662 C88.57,16.908 86.842,15.126 84.52,15.126 C83.134,15.126 82.144,15.738 81.478,16.764 C81.46,15.54 80.884,15.252 80.362,15.252 C80.002,15.252 79.714,15.396 79.714,15.45 L79.714,26.682 C79.714,27.33 80.038,27.528 80.506,27.528 Z M84.142,22.758 C82.702,22.758 81.478,21.678 81.478,20.22 L81.478,18.402 C81.928,17.304 82.846,16.602 84.178,16.602 C85.726,16.602 86.842,17.88 86.842,19.68 C86.842,21.516 85.762,22.758 84.142,22.758 Z" id="To-Top" fill="#000000" sketch:type="MSShapeGroup"></path>
        </g>
    </g>
</svg>