<?xml version="1.0" encoding="UTF-8" standalone="no"?>
<svg width="84px" height="36px" viewBox="0 0 84 36" version="1.1" xmlns="http://www.w3.org/2000/svg" xmlns:xlink="http://www.w3.org/1999/xlink" xmlns:sketch="http://www.bohemiancoding.com/sketch/ns">
    <!-- Generator: Sketch 3.0.4 (8053) - http://www.bohemiancoding.com/sketch -->
    <title>back_top</title>
    <desc>Created with Sketch.</desc>
    <defs></defs>
    <g id="Page-1" stroke="none" stroke-width="1" fill="none" fill-rule="evenodd" sketch:type="MSPage">
        <g id="back_top" sketch:type="MSArtboardGroup">
            <rect id="Rectangle-6" fill="#FFFFFF" sketch:type="MSShapeGroup" x="0" y="1" width="82" height="35" rx="8"></rect>
            <path d="M0,9.00776211 L0,27.9922379 C0,32.4148028 3.57616457,36 7.99308101,36 L74.006919,36 C78.4213757,36 82,32.4188675 82,27.9922379 L82,9.00776211 C82,4.58519722 78.4238354,1 74.006919,1 L7.99308101,1 C3.57862426,1 0,4.58113254 0,9.00776211 Z M74.006919,3 C77.3174986,3 80,5.68799975 80,9.00776211 L80,27.9922379 C80,31.3135582 77.3175429,34 74.006919,34 L7.99308101,34 C4.68250137,34 2,31.3120002 2,27.9922379 L2,9.00776211 C2,5.68644184 4.68245714,3 7.99308101,3 L74.006919,3 Z" id="Rectangle-5" fill="#000000" sketch:type="MSShapeGroup"></path>
            <path d="M23.2991066,16.9979505 L28.7409814,19.1530768 L21.6441246,10.4812138 L14.4205087,19.153077 L19.8623835,17.0357684 L19.8623835,26.848644 L23.2991066,26.8486437 L23.2991066,16.9979505 Z" id="Path-92" fill="#000000" sketch:type="MSShapeGroup"></path>
            <path d="M38.202,13.656 L41.388,13.656 L41.388,22.872 C41.388,23.43 41.658,23.718 42.18,23.718 L42.432,23.718 C42.972,23.718 43.26,23.43 43.26,22.872 L43.26,13.656 L46.446,13.656 C47.004,13.656 47.292,13.368 47.292,12.864 L47.292,12.774 C47.292,12.27 47.004,12 46.446,12 L38.202,12 C37.644,12 37.338,12.27 37.338,12.774 L37.338,12.864 C37.338,13.368 37.644,13.656 38.202,13.656 Z M51.144,23.88 C53.808,23.88 55.68,21.99 55.68,19.344 C55.68,16.68 53.808,14.772 51.162,14.772 C48.48,14.772 46.608,16.662 46.608,19.308 C46.608,21.99 48.462,23.88 51.144,23.88 Z M51.144,22.422 C49.488,22.422 48.246,21.09 48.246,19.308 C48.246,17.526 49.488,16.23 51.144,16.23 C52.818,16.23 54.024,17.544 54.024,19.344 C54.024,21.108 52.8,22.422 51.144,22.422 Z M58.146,27.174 L58.344,27.174 C58.794,27.174 59.136,26.976 59.136,26.328 L59.136,22.26 C59.622,23.124 60.666,23.88 62.106,23.88 C64.5,23.88 66.21,22.026 66.21,19.308 C66.21,16.554 64.482,14.772 62.16,14.772 C60.774,14.772 59.784,15.384 59.118,16.41 C59.1,15.186 58.524,14.898 58.002,14.898 C57.642,14.898 57.354,15.042 57.354,15.096 L57.354,26.328 C57.354,26.976 57.678,27.174 58.146,27.174 Z M61.782,22.404 C60.342,22.404 59.118,21.324 59.118,19.866 L59.118,18.048 C59.568,16.95 60.486,16.248 61.818,16.248 C63.366,16.248 64.482,17.526 64.482,19.326 C64.482,21.162 63.402,22.404 61.782,22.404 Z" id="To-Top" fill="#000000" sketch:type="MSShapeGroup"></path>
        </g>
    </g>
</svg>