<?xml version="1.0" encoding="UTF-8" standalone="no"?>
<svg width="115px" height="259px" viewBox="0 0 115 259" version="1.1" xmlns="http://www.w3.org/2000/svg" xmlns:xlink="http://www.w3.org/1999/xlink" xmlns:sketch="http://www.bohemiancoding.com/sketch/ns">
    <!-- Generator: Sketch 3.0.4 (8053) - http://www.bohemiancoding.com/sketch -->
    <title>big_biz</title>
    <desc>Created with Sketch.</desc>
    <defs></defs>
    <g id="Page-1" stroke="none" stroke-width="1" fill="none" fill-rule="evenodd" sketch:type="MSPage">
        <g id="big_biz" sketch:type="MSArtboardGroup" stroke="#646464" stroke-width="2" stroke-linecap="round" stroke-linejoin="round">
            <path d="M29.0747369,249.339173 L12.1701471,73.0402487 L44.8622718,69.5742466 L47.832385,8.6216776 L58.0529151,64.5996985 C64.8495759,64.3059519 100.989059,62.7440303 100.989059,62.7440303 L91.757697,248.522262 L71.1443806,247.533094 L70.327469,231.990893 L48.2029966,231.990893 L47.0389628,249.339173 L29.0747369,249.339173 Z" id="Path-73" sketch:type="MSShapeGroup"></path>
            <path d="M31.6902092,91.611387 L32.9424238,112.283496 C32.9424238,112.283496 46.012084,111.995539 46.012084,106.015158 C46.012084,100.034776 37.6144525,101.837807 37.6144525,101.837807 C37.6144525,101.837807 46.0312369,99.4139522 45.1165125,94.8991107 C44.2017882,90.3842693 31.6902092,91.611387 31.6902092,91.611387 Z" id="Path-74" sketch:type="MSShapeGroup"></path>
            <path d="M56.038387,90.9291413 L56.2886978,109.465352" id="Path-75" sketch:type="MSShapeGroup"></path>
            <path d="M79.8165957,97.3791034 L78.0254533,91.0665151 L68.2065318,90.8162042 L65.1129804,99.9092903 L68.7883889,108.300978 L78.8582817,108.175492 C78.8582817,108.175492 80.4050565,101.693828 80.4050573,101.693828 C80.4050582,101.693829 72.2517927,100.398024 72.2517927,100.398024" id="Path-76" sketch:type="MSShapeGroup"></path>
            <path d="M44.253041,133.228014 L65.9422029,131.944677 L64.1099693,180.270805 L48.5872012,180.270805 L44.253041,133.228014 Z" id="Path-84" sketch:type="MSShapeGroup"></path>
            <path d="M50.5856501,189.103408 L51.3916009,199.503459 L60.3343698,199.503459 L62.7812134,189.158491 L50.5856501,189.103408 Z" id="Path-85" sketch:type="MSShapeGroup"></path>
        </g>
    </g>
</svg>