<?xml version="1.0" encoding="UTF-8" standalone="no"?>
<svg width="126px" height="85px" viewBox="0 0 126 85" version="1.1" xmlns="http://www.w3.org/2000/svg" xmlns:xlink="http://www.w3.org/1999/xlink" xmlns:sketch="http://www.bohemiancoding.com/sketch/ns">
    <!-- Generator: Sketch 3.0.4 (8053) - http://www.bohemiancoding.com/sketch -->
    <title>distant_sound</title>
    <desc>Created with Sketch.</desc>
    <defs></defs>
    <g id="Page-1" stroke="none" stroke-width="1" fill="none" fill-rule="evenodd" sketch:type="MSPage">
        <g id="distant_sound" sketch:type="MSArtboardGroup" transform="translate(0.236771, 0.500000)" stroke="#646464" stroke-width="2" stroke-linecap="round" stroke-linejoin="round">
            <path d="M11.9410404,38.346276 C14.7635428,-2.32268089 73.8970096,4.88442881 83.5437091,23.9253598 C93.1904086,42.9662907 81.6358365,50.513121 113.587407,62.317137 C71.1002075,79.0152302 9.11853796,79.0152329 11.9410404,38.346276 Z" id="Path-45" sketch:type="MSShapeGroup"></path>
            <path d="M37.6516555,28.009711 L64.5610872,25.3140825 L65.8816135,51.6773142 C65.8816135,51.6773142 54.1849163,62.6927008 53.3338192,54.4808954 C52.4827221,46.2690901 63.2283733,50.3493971 63.2283733,50.3493971 L61.9721989,30.6186792 L40.5244796,32.5593767 L42.2994831,54.4808954 C42.2994831,54.4808954 30.7730383,63.6948713 29.9792804,55.539905 C29.1855226,47.3849386 39.874333,52.9068426 39.874333,52.9068426 L37.6516555,28.009711 Z" id="Path-46" sketch:type="MSShapeGroup"></path>
        </g>
    </g>
</svg>