<?xml version="1.0" encoding="UTF-8" standalone="no"?>
<svg width="127px" height="51px" viewBox="0 0 127 51" version="1.1" xmlns="http://www.w3.org/2000/svg" xmlns:xlink="http://www.w3.org/1999/xlink" xmlns:sketch="http://www.bohemiancoding.com/sketch/ns">
    <!-- Generator: Sketch 3.0.4 (8053) - http://www.bohemiancoding.com/sketch -->
    <title>gd_blue_copy</title>
    <desc>Created with Sketch.</desc>
    <defs></defs>
    <g id="Page-1" stroke="none" stroke-width="1" fill="none" fill-rule="evenodd" sketch:type="MSPage">
        <g id="gd_blue_copy" sketch:type="MSArtboardGroup" transform="translate(0.605911, 0.145638)" stroke="#646464" stroke-width="2" stroke-linecap="round" stroke-linejoin="round">
            <path d="M4.3751387,39.661165 C38.3214882,3.41625193 -2.89922303,-9.10872997 9.50506336,30.3358648 C11.7619545,37.5678412 13.2949502,39.7327598 18.8550009,40.1243408 C32.1878323,41.0633401 27.5777415,20.1284728 24.0094715,23.2306182 C19.9457125,26.7635267 45.6133146,38.4806067 47.1870415,11.6335731 C47.3322017,9.15720897 46.0627774,4.46693563 42.3757479,4.25093641 C31.079262,3.58914835 31.9271293,36.3291165 42.4807665,40.1243392 C55.0186543,44.6331237 56.904454,20.6775109 56.904454,20.8426294 C56.904454,24.6174309 53.8886894,37.9300639 61.2284913,37.9300639 C70.5831042,37.9300639 69.7096532,20.6846075 69.7096532,20.721033 C69.7096532,25.5494335 69.5326835,37.6852309 77.3085978,38.9968439 C83.0309616,39.9620714 98.9034678,26.8754087 91.4427885,21.9031446 C82.7632994,16.1185892 75.8294156,49.7504581 120.149268,41.7567742" id="Path" sketch:type="MSShapeGroup"></path>
        </g>
    </g>
</svg>