<?xml version="1.0" encoding="UTF-8" standalone="no"?>
<svg width="703px" height="288px" viewBox="0 0 703 288" version="1.1" xmlns="http://www.w3.org/2000/svg" xmlns:xlink="http://www.w3.org/1999/xlink" xmlns:sketch="http://www.bohemiancoding.com/sketch/ns">
    <!-- Generator: Sketch 3.0.4 (8053) - http://www.bohemiancoding.com/sketch -->
    <title>gd_bg</title>
    <desc>Created with Sketch.</desc>
    <defs></defs>
    <g id="Page-1" stroke="none" stroke-width="1" fill="none" fill-rule="evenodd" sketch:type="MSPage">
        <g id="gd_bg" sketch:type="MSArtboardGroup" transform="translate(0.871028, 0.500000)" stroke="#5E5E5E" stroke-width="3" stroke-linecap="round" stroke-linejoin="round">
            <path d="M13.6638754,276.220091 L45.9524232,276.220091 L45.9524232,189.826788 L62.1291555,189.826788 L68.8985067,124.923431 L81.0183855,127.899063 L86.3020731,204.61172 L99.5173295,202.974691 L104.243841,131.416346 L116.828859,131.416346 L117.345247,202.779766 L155.193562,204.54617 L154.784736,270.313676 L164.287783,267.353569 L168.883194,204.201169 L196.052009,204.201169 L192.486426,58.940299 L201.187346,58.940299 L206.389959,10.6246591 L213.798851,57.9915467 L224.414526,57.9915467 L232.37887,153.235923 L287.320251,148.982063 L295.940096,205.281022 L347.414219,204.953271 L342.277157,53.5755362 L357.067486,53.5755362 L357.063892,42.4216597 L364.965022,42.4216597 L364.866085,28.4525765 L375.497286,27.3571989 L374.515758,42.126684 L385.686885,42.7804605 L383.47888,53.1511852 L400.734096,53.1511852 L391.558799,233.267488 L437.487033,234.575042 L438.239135,145.449255 L474.616021,143.061849 L475.597549,88.7104197 L479.593317,88.7104197 L483.987969,48.3591238 L485.181671,88.2032685 L492.183463,88.2032685 L489.435531,225.955196 L528.91915,227.918251 L527.463247,144.467727 L588.129916,137.926512 L584.743733,183.544245 L608.86964,188.891758 L608.198614,77.9463942 L678.547731,82.084679 L653.604172,257.736672 L686.332675,257.736672" id="cityscape" sketch:type="MSShapeGroup"></path>
            <path d="M203.136027,83.5499238 L203.719428,95.6942415 L211.217046,94.9148539 L210.633645,79.4866252 L203.136027,83.5499238 Z" id="Path-3" sketch:type="MSShapeGroup"></path>
            <path d="M354.870491,80.3526115 L354.870491,97.5082548 L362.584605,97.5082548 L362.584605,78.5591084 L354.870491,80.3526115 Z" id="Path-4" sketch:type="MSShapeGroup"></path>
            <path d="M377.689228,136.252024 L377.839636,148.676647 L383.199636,148.676647 L383.199636,135.408827 L377.689228,136.252024 Z" id="Path-5" sketch:type="MSShapeGroup"></path>
            <path d="M451.373263,164.43076 L452.389658,178.409602 L460.946969,177.8262 L460.946969,162.247563 L451.373263,164.43076 Z" id="Path-6" sketch:type="MSShapeGroup"></path>
            <path d="M544.375628,159.740761 L544.375628,176.745996 L551.333144,175.882289 L551.333144,154.553959 L544.375628,159.740761 Z" id="Path-7" sketch:type="MSShapeGroup"></path>
            <path d="M625.646159,117.993387 L625.796567,135.345017 L634.007484,134.912024 L634.007484,113.002572 L625.646159,117.993387 Z" id="Path-8" sketch:type="MSShapeGroup"></path>
            <path d="M262.039044,172.078786 L262.039044,182.796506 L268.26275,182.796506 L268.26275,166.50457 L262.039044,172.078786 Z" id="Path-9" sketch:type="MSShapeGroup"></path>
            <path d="M64.0426832,228.821396 L64.0426832,243.992107 L76.9846197,243.992107 L78.7143133,226.53109 L64.0426832,228.821396 Z" id="Path-10" sketch:type="MSShapeGroup"></path>
            <path d="M643.041088,153.473755 L643.041088,168.188685 L651.274794,168.188685 L651.274794,152.327463 L643.041088,153.473755 Z" id="Path-11" sketch:type="MSShapeGroup"></path>
        </g>
    </g>
</svg>