<?xml version="1.0" encoding="UTF-8" standalone="no"?>
<svg width="310px" height="173px" viewBox="0 0 310 173" version="1.1" xmlns="http://www.w3.org/2000/svg" xmlns:xlink="http://www.w3.org/1999/xlink" xmlns:sketch="http://www.bohemiancoding.com/sketch/ns">
    <!-- Generator: Sketch 3.0.4 (8053) - http://www.bohemiancoding.com/sketch -->
    <title>gd_car</title>
    <desc>Created with Sketch.</desc>
    <defs></defs>
    <g id="Page-1" stroke="none" stroke-width="1" fill="none" fill-rule="evenodd" sketch:type="MSPage">
        <g id="gd_car" sketch:type="MSArtboardGroup" stroke="#DFDFDF" stroke-width="3" stroke-linecap="round" stroke-linejoin="round">
            <path d="M98.7444779,70.2924969 C98.7444779,70.2924969 135.293127,75.0979374 175.108642,72.0693762 C214.924157,69.040815 245.223651,62.701428 245.223651,62.701428 L209.091458,27.4484204 L100.808249,33.1515551 L98.7444779,70.2924969 Z" id="Path-23" sketch:type="MSShapeGroup"></path>
            <path d="M52.6103984,53.9489093 C52.6103984,53.9489093 66.7837871,28.0615363 79.0900644,28.0615363 C91.3963417,28.0615363 90.6721708,38.2623968 90.6721708,38.2623968 L89.7952994,67.8562288 L52.6103984,53.9489093 Z" id="Path-24" sketch:type="MSShapeGroup"></path>
            <path d="M13.9771556,70.4451975 C13.9771556,70.4451975 18.6715411,51.1193215 26.5911477,51.1193215 C34.5107542,51.1193215 47.080787,45.9853435 47.080787,45.9853435 C47.080787,45.9853435 61.122298,26.1990522 72.8362822,23.5661243 C84.5502664,20.9331964 150.276291,17.0046273 168.200098,17.0046273 C186.123905,17.0046273 211.088134,22.7748577 211.088134,22.7748577 L254.392626,65.2903966 C254.392626,65.2903966 293.178569,73.6056365 290.108362,84.9031646 C287.038156,96.2006927 267.622047,103.285073 217.867114,106.730091 C168.11218,110.175108 116.832789,112.894662 102.201298,105.28277 C102.164413,105.268693 95.4105156,93.2415408 84.4183886,93.2415408 C81.3690046,93.3711049 31.0657369,74.396903 31.0657369,74.396903 C31.0657369,74.396903 27.1907235,66.0737271 19.4895028,68.2837144" id="Path-25" sketch:type="MSShapeGroup"></path>
            <path d="M13.2738076,75.1187602 C13.2738076,75.1187602 24.8142684,69.8529044 27.4471963,85.0558651 C30.0801242,100.258826 27.4911555,117.689826 27.4911555,117.689826 L73.0792149,142.158935 C73.0792149,142.158935 74.8808574,90.3180159 91.0836562,100.598001 C107.286455,110.877986 103.987197,159.842123 103.987197,159.842123 L137.861272,163.067344 C137.861272,163.067344 149.751094,152.623551 160.98384,152.623551 C172.216586,152.623551 282.956886,146.043545 282.956886,146.043545 L291.447963,152.931266 C291.447963,152.931266 298.467561,146.043545 298.467561,116.20678 C298.467561,86.3700154 291.732541,82.6866927 291.732541,82.6866927" id="Path-26" sketch:type="MSShapeGroup"></path>
            <path d="M182.923862,118.730967 L191.986682,142.554569 L251.885315,139.00081 L257.840025,112.412403 L182.923862,118.730967 Z" id="Path-27" sketch:type="MSShapeGroup"></path>
            <path d="M121.890182,116.338658 L122.329774,125.574728 L172.677001,128.647249 L165.655089,117.918877 L121.890182,116.338658 Z" id="Path-28" sketch:type="MSShapeGroup"></path>
            <path d="M268.882423,110.175108 L263.098311,120.572628 L292.414996,112.521144 L293.081046,99.0534169 L268.882423,110.175108 Z" id="Path-29" sketch:type="MSShapeGroup"></path>
            <path d="M89.4703732,161.24896 C95.0313187,161.24896 98.1858803,155.365052 98.1858803,139.500001 C98.1858803,123.63495 93.7436345,105.843965 88.1826889,105.843965 C82.6217433,105.843965 79.0157175,119.809843 79.0157175,135.674893 C79.0157175,151.539944 83.9094276,161.24896 89.4703732,161.24896 Z" id="Oval-8" sketch:type="MSShapeGroup"></path>
            <path d="M17.1075172,121.388422 C21.0328906,121.388422 23.7500896,113.14256 23.7500896,100.957546 C23.7500896,88.7725333 21.0328906,79.5426886 17.1075172,79.5426886 C13.1821439,79.5426886 10,88.7725335 10,100.957547 C10,113.14256 13.1821439,121.388422 17.1075172,121.388422 Z" id="Oval-9" sketch:type="MSShapeGroup"></path>
            <path d="M150.056495,160.480689 L284.493146,151.836912" id="Path-30" sketch:type="MSShapeGroup"></path>
            <path d="M191.909686,123.451216 L247.727834,119.314923" id="Path-30" sketch:type="MSShapeGroup"></path>
            <path d="M194.023349,129.097133 L246.487515,126.040904" id="Path-31" sketch:type="MSShapeGroup"></path>
            <path d="M196.549503,135.157438 L246.253296,131.857507" id="Path-32" sketch:type="MSShapeGroup"></path>
        </g>
    </g>
</svg>