<?xml version="1.0" encoding="UTF-8" standalone="no"?>
<svg width="258px" height="128px" viewBox="0 0 258 128" version="1.1" xmlns="http://www.w3.org/2000/svg" xmlns:xlink="http://www.w3.org/1999/xlink" xmlns:sketch="http://www.bohemiancoding.com/sketch/ns">
    <!-- Generator: Sketch 3.0.4 (8053) - http://www.bohemiancoding.com/sketch -->
    <title>gd_plate</title>
    <desc>Created with Sketch.</desc>
    <defs></defs>
    <g id="Page-1" stroke="none" stroke-width="1" fill="none" fill-rule="evenodd" sketch:type="MSPage">
        <g id="gd_plate" sketch:type="MSArtboardGroup" stroke="#5E5E5E" stroke-width="3" stroke-linecap="round" stroke-linejoin="round">
            <g id="Group" sketch:type="MSLayerGroup" transform="translate(10.000000, 7.000000)">
                <path d="M-0.0677816901,41.7734375 L10.3367077,111.890625 L231.182163,74.5546875 L217.286917,0.4375 L-0.0677816901,41.7734375 Z" id="Path-12" fill="#C4C4C4" sketch:type="MSShapeGroup"></path>
                <path d="M43.4667105,48.4957586 L23.8329615,51.8024187 L28.7444313,92.558884 L52.098476,88.7227459 L47.9518079,69.6245401 L34.8404034,72.4247692" id="Path-29" sketch:type="MSShapeGroup"></path>
                <path d="M55.0388813,47.1844619 L59.3141189,87.2716801 L80.841359,82.5301258 L74.4393739,43.0230857 L55.0388813,47.1844619 Z" id="Path-14" sketch:type="MSShapeGroup"></path>
                <path d="M84.7744403,41.1297826 L89.5491803,81.6833175 L103.290934,79.1606298 L107.636548,70.621598 L104.305387,44.8299915 L98.9510411,38.85656 L84.7744403,41.1297826 Z" id="Path-15" sketch:type="MSShapeGroup"></path>
                <path d="M135.77444,31.1297826 L140.54918,71.6833175 L154.290934,69.1606298 L158.636548,60.621598 L155.305387,34.8299915 L149.951041,28.85656 L135.77444,31.1297826 Z" id="Path-17" sketch:type="MSShapeGroup"></path>
                <path d="M161.77444,26.1297826 L166.54918,66.6833175 L180.290934,64.1606298 L184.636548,55.621598 L181.305387,29.8299915 L175.951041,23.85656 L161.77444,26.1297826 Z" id="Path-18" sketch:type="MSShapeGroup"></path>
                <path d="M123.105624,66.9066632 L112.128637,78.2926513 L119.621174,34.1584905 L136.190008,74.8533508 L123.105624,66.9066632 Z" id="Path-16" sketch:type="MSShapeGroup"></path>
                <path d="M186.779938,21.9404199 C186.779938,21.9404199 199.198839,38.4823625 199.198839,38.4823621 C199.198839,38.4823616 206.544329,17.8282502 206.544329,17.8282502 L199.198839,38.4823623 L203.105029,62.4727847" id="Path-19" sketch:type="MSShapeGroup"></path>
            </g>
        </g>
    </g>
</svg>