<?xml version="1.0" encoding="UTF-8" standalone="no"?>
<svg width="258px" height="128px" viewBox="0 0 258 128" version="1.1" xmlns="http://www.w3.org/2000/svg" xmlns:xlink="http://www.w3.org/1999/xlink" xmlns:sketch="http://www.bohemiancoding.com/sketch/ns">
    <!-- Generator: Sketch 3.0.4 (8053) - http://www.bohemiancoding.com/sketch -->
    <title>gd_plate</title>
    <desc>Created with Sketch.</desc>
    <defs></defs>
    <g id="Page-1" stroke="none" stroke-width="1" fill="none" fill-rule="evenodd" sketch:type="MSPage">
        <g id="gd_plate" sketch:type="MSArtboardGroup" stroke="#5E5E5E" stroke-width="3" stroke-linecap="round" stroke-linejoin="round">
            <path d="M9.93221831,48.7734375 L20.3367077,118.890625 L241.182163,81.5546875 L227.286917,7.4375 L9.93221831,48.7734375 Z" id="Path-12" sketch:type="MSShapeGroup"></path>
            <path d="M53.4667105,55.4957586 L33.8329615,58.8024187 L38.7444313,99.558884 L62.098476,95.7227459 L57.9518079,76.6245401 L44.8404034,79.4247692" id="Path-29" sketch:type="MSShapeGroup"></path>
            <path d="M65.0388813,54.1844619 L69.3141189,94.2716801 L90.841359,89.5301258 L84.4393739,50.0230857 L65.0388813,54.1844619 Z" id="Path-14" sketch:type="MSShapeGroup"></path>
            <path d="M94.7744403,48.1297826 L99.5491803,88.6833175 L113.290934,86.1606298 L117.636548,77.621598 L114.305387,51.8299915 L108.951041,45.85656 L94.7744403,48.1297826 Z" id="Path-15" sketch:type="MSShapeGroup"></path>
            <path d="M145.77444,38.1297826 L150.54918,78.6833175 L164.290934,76.1606298 L168.636548,67.621598 L165.305387,41.8299915 L159.951041,35.85656 L145.77444,38.1297826 Z" id="Path-17" sketch:type="MSShapeGroup"></path>
            <path d="M171.77444,33.1297826 L176.54918,73.6833175 L190.290934,71.1606298 L194.636548,62.621598 L191.305387,36.8299915 L185.951041,30.85656 L171.77444,33.1297826 Z" id="Path-18" sketch:type="MSShapeGroup"></path>
            <path d="M133.105624,73.9066632 L122.128637,85.2926513 L129.621174,41.1584905 L146.190008,81.8533508 L133.105624,73.9066632 Z" id="Path-16" sketch:type="MSShapeGroup"></path>
            <path d="M196.779938,28.9404199 C196.779938,28.9404199 209.198839,45.4823625 209.198839,45.4823621 C209.198839,45.4823616 216.544329,24.8282502 216.544329,24.8282502 L209.198839,45.4823623 L213.105029,69.4727847" id="Path-19" sketch:type="MSShapeGroup"></path>
        </g>
    </g>
</svg>