<?xml version="1.0" encoding="UTF-8" standalone="no"?>
<svg width="148px" height="217px" viewBox="0 0 148 217" version="1.1" xmlns="http://www.w3.org/2000/svg" xmlns:xlink="http://www.w3.org/1999/xlink" xmlns:sketch="http://www.bohemiancoding.com/sketch/ns">
    <!-- Generator: Sketch 3.0.4 (8053) - http://www.bohemiancoding.com/sketch -->
    <title>godaddy</title>
    <desc>Created with Sketch.</desc>
    <defs></defs>
    <g id="Page-1" stroke="none" stroke-width="1" fill="none" fill-rule="evenodd" sketch:type="MSPage">
        <g id="godaddy" sketch:type="MSArtboardGroup">
            <g id="godaddy_guy" sketch:type="MSLayerGroup">
                <path d="M125.9,108.4 C121.2,94.5 114,79.5 102.1,70.1 C90.4,61 76.3,57.3 62.1,57.3 C48,57.3 33.8,60.9 21.1,66.6 C18.5,67.8 17.1,70.7 17.8,73.5 L50,209.7 C50.4,211.5 51.7,213.1 53.4,213.8 C54.2,214.1 55,214.3 55.8,214.3 C56.8,214.3 57.8,214.1 58.7,213.6 C65.4,210 71.1,206 73.1,204.6 C75.3,203.1 76.8,202.8 78.8,202.7 C83.1,202.4 89.9,206.1 99.5,206.3 C101.6,206.3 103.8,206.1 106.1,205.6 C112.5,204.2 116.9,200.2 119.1,196.1 C121.3,192 121.6,188.1 121.6,185.6 C121.6,184.6 121.5,183.8 121.5,183.3 C121.4,179.9 120.4,177 119.2,174 C117.3,169.5 114.8,164.9 112.9,160.9 C111.3,157.7 110.2,154.6 109.9,153.2 C110.5,152.9 111.4,152.5 112.4,152.2 C115.3,151.2 119.2,150.3 122.5,149.4 C124.2,149 125.7,148.5 127.2,147.9 C128,147.6 128.7,147.2 129.7,146.5 C130.2,146.1 130.8,145.6 131.3,144.8 C131.9,143.9 132.4,142.6 132.4,141.1 C132.4,135 130.5,122.4 125.9,108.4 L125.9,108.4 Z" id="head_black_fill_16_" fill="#000000" sketch:type="MSShapeGroup"></path>
                <path d="M97,77 C87.2,69.4 75.1,66.1 62.4,66.1 C50.6,66.1 38.4,68.9 27.3,73.7 L58.2,203.9 C63,201.1 66.9,198.4 68.5,197.3 C72.1,194.8 75.8,193.8 79.3,193.8 C86.8,193.9 93.1,197.4 100,197.3 C101.5,197.3 103,197.1 104.6,196.8 C108.7,195.8 110.5,193.9 111.7,191.8 C112.9,189.6 113.1,187.1 113.1,185.5 C113.1,185 113.1,184.6 113,184.3 L113,184 L113,183.8 L113,183.6 L113,183.3 C113.1,180.6 110.4,174.7 107.5,169 C104.6,163.2 101.4,157.6 101.3,152.4 C101.3,150.5 101.9,148.3 103.6,146.8 C106.5,144.4 110.7,143.3 115,142.1 C118.6,141.2 122.3,140.3 123.9,139.6 C123.6,134.4 121.8,122.9 117.8,111.1 C113.5,98.1 106.6,84.4 97,77 L97,77 Z" id="Head_white_fill_16_" fill="#FFFFFF" sketch:type="MSShapeGroup"></path>
                <path d="M112.3,185.3 C101.3,183.8 93.7,180.6 87.8,175.7 L87.8,175.7 C81.8,170.8 77.5,164.5 72.4,157 L72.4,157 C71.5,155.7 71.8,153.9 73.1,153 L73.1,153 C74.4,152.1 76.2,152.4 77.1,153.7 L77.1,153.7 C82.3,161.2 86.4,167 91.5,171.2 L91.5,171.2 C96.6,175.4 102.9,178.2 113.2,179.6 L113.2,179.6 C114.8,179.8 115.9,181.3 115.7,182.8 L115.7,182.8 C115.5,184.3 114.3,185.3 112.8,185.3 L112.8,185.3 C112.5,185.3 112.4,185.3 112.3,185.3 L112.3,185.3 L112.3,185.3 Z" id="SMILE_15_" fill="#000000" sketch:type="MSShapeGroup"></path>
                <path d="M23.8,77.4 C20.9,79.2 19.1,81.5 17.3,82.8 C15.4,84.4 15.1,86.1 15,87.8 C15,88.5 15.1,89.2 15.5,90 C15.8,90.8 16.7,91.9 18.2,92.3 C20.7,92.9 23,93.2 25.2,93.2 L26.3,93.2 L23.8,77.4 L23.8,77.4 Z" id="star_outer_outline_18_" fill="#000000" sketch:type="MSShapeGroup"></path>
                <path d="M51,83.8 C53.4,82.4 56.5,81.3 59.3,80.1 C59.9,79.9 60.4,78.7 60.2,77.7 C60.1,77.1 59.7,76.3 59.4,76.2 C57.1,75.7 55.5,75.5 52.6,75.2 C49.4,74.8 47.6,75 45,73.8 C43.9,73.3 43.8,71.5 43.5,70.3 C42.3,65.8 40.9,61.4 39,57.6 C38.7,56.9 37.6,56.5 36.9,57.2 C36.2,57.8 35.7,59 36,60.3 C36.9,64.8 34.7,69.3 33.7,73.4 L32.3,75.7 C30.2,77.5 28,78.8 25.7,80.2 C23.5,81.5 21.7,83.7 19.5,85.4 C18.4,86.2 18.2,88.6 19.2,88.9 C22.9,89.9 26.5,89.8 30,89.3 C30.1,93.7 28.5,97.9 27,101.6 C26.7,102.4 26.4,102.7 26.2,103.3 C25.6,104.7 27.3,106.4 28.4,106.2 C31.7,105.6 33.9,101.6 37,97.9 C38.6,96 40.6,92.8 41.9,92.9 C43.5,92.9 48.6,96.5 52.6,99.1 C54.9,100.6 56.8,102.2 59.4,101.8 C60.1,101.8 60.5,100.8 61,99.8 C61.5,98.6 57.6,93.5 57.6,93.5 C55.8,91.1 52.3,86.7 51.1,85 C50.6,84.4 50.4,84.2 51,83.8 L51,83.8 Z" id="Star_black_12_" fill="#000000" sketch:type="MSShapeGroup"></path>
                <path d="M23.5,85.7 C23.8,86.7 30.2,85.4 30.3,85.3 C32.6,85 33.3,84.6 33,86 C32.8,87 32.7,88.4 32.5,89.3 C31.8,92.3 31.2,94.4 30.4,97 C30.3,97.3 30.7,97.4 31,96.9 C32.8,94.9 33.9,93.4 35.5,91.4 C37.2,89.2 39.2,86.3 41.3,87.9 C44.7,90.5 45.9,91.2 48.8,93.6 C49.4,94.2 52.8,96.2 53.2,95.9 C54.1,95.2 47.9,88.3 45.5,85.6 C43.8,83.7 44.1,82.3 45.7,81.6 C47.4,80.9 53.3,79.2 53.2,78.7 C53.1,78 48.5,78.3 46.5,78.2 C45.4,78.1 42.2,78.3 41.5,77.8 C40.9,77.4 40.5,77.2 39.9,75.1 L37.5,65.3 C37.2,64.4 36.8,63.9 36.4,65.7 C36.1,67.4 35.6,72.4 35.4,73.5 C35.2,74.5 33.6,77.7 33.6,77.7 C33.6,77.7 29.6,80.7 28.6,81.5 C27.4,82.5 23.3,85 23.5,85.7 L23.5,85.7 Z" id="Star_yellow_11_" fill="#FFD200" sketch:type="MSShapeGroup"></path>
                <path d="M12.5,67 C12.7,68.2 13.1,70.2 15.1,72.3 C17,74.3 19.7,74.9 21.1,74.9 L21.4,74.9 C23,74.9 23.7,74.6 24.1,74.5 L24.4,74.5 C28.7,74.5 32.6,72.6 35.1,70.2 C37.2,68.2 38.6,65.8 39.5,63.3 C40.3,63.4 41,63.5 41.7,63.5 C43.5,63.5 45.2,63.2 46.9,62.6 C48.3,62.1 49.8,61.3 51.2,60 C51.7,60.8 52.2,61.5 52.7,62.1 C54.3,63.8 56,64.7 57.5,65.3 L57.6,65.3 L57.7,65.3 C59.4,65.9 61.2,66.2 62.9,66.2 L62.9,66.2 C66.2,66.2 69.1,65.1 71.4,63.7 C73.3,62.5 74.9,60.9 76.2,59.2 C76.9,61.3 78.2,63.1 79.7,64.2 C82,66 84.6,66.7 87.1,66.7 L87.1,66.7 C89.9,66.7 93,65.7 95.5,63.2 C100.5,58.1 103.4,52.6 103.4,46.8 C103.4,43.3 102.3,40.2 101.1,37.9 C99.9,35.6 98.6,33.9 97.6,32.5 C95.7,29.8 94.7,28.3 94,27.2 C93.3,26.1 92.8,25.2 91.8,23.2 C91.7,23 91.6,22.9 91.6,22.8 C94.4,19.7 94.8,16.7 94.9,14 C94.8,10.6 94,6.8 90.2,3.5 L89.9,3.2 L89.5,3 C87.4,1.6 84.8,0.4 81.7,0.4 C78.5,0.4 75.5,1.9 73.7,3.5 C73.4,3.8 73.2,4.1 72.9,4.4 C71.7,3.5 70.6,3.1 69.7,2.8 C68.3,2.4 67.1,2.2 65.8,2.2 C63.8,2.2 61.8,2.5 59.7,3.5 C57.7,4.3 55.4,5.8 53.7,8.3 C52.9,6.4 51.6,4.8 50.4,4.1 L50.1,3.9 L49.8,3.7 C46.8,1.9 43.4,1.2 40.3,1.2 C35.6,1.2 31.2,2.7 27.5,5.2 C24.7,7.1 22.2,9.7 20.6,13 C20.2,12.8 19.9,12.5 19.5,12.4 C17.7,11.6 16.3,11.5 15.1,11.4 C11.9,11.5 9.7,12.4 7.2,13.9 C4.9,15.4 2.3,17.8 1.3,21.9 L1.2,22.4 L1.1,22.9 C0.8,25.8 -0.2,29.9 -0.3,34.8 C-0.3,37 -0.1,39.5 0.9,42 C1.7,44.4 3.3,46.9 5.5,48.8 C9,52.5 12.3,55.1 15.1,57.9 C14.9,58.2 14.7,58.6 14.5,59.1 C13.8,60.5 13,61.5 12.5,64.5 C12.4,65.3 12.4,66.8 12.5,67 L12.5,67 Z" id="hair_black_background_22_" fill="#000000" sketch:type="MSShapeGroup"></path>
                <path d="M92.1,36.7 C88.3,31.3 87.8,30.5 85.8,26.4 C85.3,25.4 84.4,24 84.4,22.3 C84.4,21 84.9,19.6 86.7,17.9 C87.7,16.9 88.1,15.5 88.1,14 C88.1,12.2 87.5,10.3 86,9.1 C84.6,8 83.4,7.7 82.2,7.7 C79.7,7.7 78.1,9.7 77,11.9 C75.8,14.2 74.9,17.2 74,19.9 C73.6,21 73.5,22.1 73.5,23.2 C73.6,31.5 82.6,38 84.5,45.7 L84.5,45.7 C84.7,46.5 84.8,47.3 84.8,48 C84.8,49.8 84.2,51.7 83.4,53.8 C83.2,54.4 83.1,55 83.1,55.5 C83.1,58 85.4,59.4 87.4,59.4 L87.4,59.4 C88.5,59.4 89.8,59 90.6,58.1 C94.8,53.8 96.4,50.1 96.4,46.8 C96.6,42.8 94.1,39.6 92.1,36.7 L92.1,36.7 Z" id="hair_4_17_" fill="#F58426" sketch:type="MSShapeGroup"></path>
                <path d="M70,12.2 C69.9,17.6 65.3,22.7 65.4,27.5 C65.4,27.8 65.4,28.2 65.5,28.5 C66.3,35 72.8,41.4 72.9,48.7 C72.9,50.6 72.4,52.5 71.3,54.4 C69.8,56.8 66.8,59 63.4,59 C62.5,59 61.6,58.9 60.6,58.5 C58.9,57.8 57.5,56.7 57.4,54.7 C57.4,54.3 57.4,54.1 57.6,53.7 C58.8,51.8 61,51.9 61.3,51.4 C62.4,50.1 63.1,48.8 63.1,47.4 C63.1,46.7 62.9,45.9 62.6,45.1 C60.5,40.4 57.8,36.5 55.9,32.1 C54.9,30.5 54.5,28.9 54.5,27.3 C54.5,22.2 57.5,17.6 60.4,12.5 C62.2,9.6 64.2,9 66.3,8.9 C68,8.8 69.9,9.7 70,12.2 L70,12.2 Z" id="hair_3_17_" fill="#F58426" sketch:type="MSShapeGroup"></path>
                <path d="M36.9,18.9 C37.4,24.5 42.4,28.5 45.8,34.2 C47.9,37.6 49.8,41.8 49.8,46.1 C49.8,48.8 49,51.6 47,54.2 C45.8,55.5 43.8,56.1 42,56.1 C41,56.1 40.1,55.9 39.3,55.4 C38.5,54.9 37.9,54 38,52.9 C38,52.5 38.1,52.1 38.2,51.7 C38.8,49.7 39.3,48 39.3,46.3 C39.3,45.4 39.2,44.5 38.8,43.5 L38.8,43.5 C36.3,35.7 26.6,29.6 26.5,21 C26.5,20.1 26.6,19.2 26.8,18.3 C28.3,12.4 34.8,8.4 40.9,8.4 C42.9,8.4 44.9,8.9 46.8,10 C47.4,10.4 47.8,11.1 47.8,11.7 C47.7,13.2 46.6,13.9 45.5,14.6 C44.4,15.3 43.1,15.8 42.1,16.1 C40.5,16.7 38.3,17.1 37.5,17.6 C37.1,17.8 36.7,17.9 36.9,18.9 L36.9,18.9 Z" id="hair_2_17_" fill="#F58426" sketch:type="MSShapeGroup"></path>
                <path d="M8.8,23.7 C8.2,26.8 7.7,30.8 7.4,34.9 C7.2,38.2 8.2,41.4 11,43.7 C14.3,47.3 18.2,50.1 21.7,54 C22.8,55.3 23.2,56.4 23.2,57.7 C23.2,58.5 23,59.4 22.6,60.3 C21.9,61.4 20,63.9 19.9,65.7 C19.7,66.9 20.7,67.7 21.4,67.8 C22.2,68 23.6,67.9 24.8,67.7 C28.9,66.9 32.2,63.6 33,60.1 C33.2,59.3 33.2,58.5 33.2,57.8 C33,48.5 22.2,44.2 18.9,37.3 C18.2,35.8 17.9,34.1 17.9,32.2 C17.9,29.7 18.1,27 18.3,24.4 C18.6,21.3 18.1,17.1 14.3,17.2 C9.8,17.4 9,22.4 8.8,23.7 L8.8,23.7 Z" id="hair_1_17_" fill="#F58426" sketch:type="MSShapeGroup"></path>
                <path d="M93.1,111.5 C93.2,111.5 96.4,110.4 99.4,110.4 L99.4,110.4 C100.4,110.4 101.4,110.5 102.4,111 L102.4,111 C103.5,111.5 104.6,113 104.5,114.4 L104.5,114.4 L104.1,114.4 L100.5,114.5 L100.1,115.2 C100.1,115.2 100,115.2 99.9,115.1 L99.9,115.1 L99.3,115.1 L99.3,115.1 C98.4,115.1 97.1,115.3 96.1,115.5 L96.1,115.5 C95.1,115.7 94.4,115.9 94.4,115.9 L94.4,115.9 L93.1,111.5 L93.1,111.5 Z" id="noseguard_15_" fill="#000000" sketch:type="MSShapeGroup"></path>
                <path d="M122.4,125 C133.5,125 142.6,120.3 142.6,114.5 C142.6,108.7 133.6,104 122.4,104 C111.3,104 102.2,108.1 102.2,114.5 C102.2,120.9 111.2,125 122.4,125 L122.4,125 Z" id="lens_2_15_" fill="#82BC00" sketch:type="MSShapeGroup"></path>
                <path d="M137.8,104.9 C133.7,102.8 128.3,101.6 122.4,101.6 C116.5,101.6 111.2,102.6 107.1,104.7 C103,106.7 99.9,110.1 99.9,114.5 C99.9,119 103.1,122.3 107.1,124.3 C111.2,126.3 116.6,127.4 122.4,127.4 C128.3,127.4 133.7,126.2 137.8,124.1 C141.8,122 144.9,118.8 145,114.5 C144.9,110.2 141.8,107 137.8,104.9 L137.8,104.9 Z M135.5,119.8 C132.3,121.5 127.6,122.6 122.3,122.6 C117,122.6 112.3,121.6 109.1,120 C105.9,118.3 104.5,116.4 104.5,114.5 C104.5,112.5 105.8,110.6 109.1,109 C112.3,107.4 117,106.4 122.3,106.4 C127.5,106.4 132.3,107.5 135.5,109.2 C138.8,110.9 140.2,113 140.1,114.5 C140.2,116 138.8,118.1 135.5,119.8 L135.5,119.8 Z" id="lense_2_15_" fill="#000000" sketch:type="MSShapeGroup"></path>
                <path d="M75.8,128.4 C85.8,128.4 93.9,121.8 93.9,113.7 C93.9,105.6 85.8,99 75.8,99 C65.8,99 57.8,105.6 57.8,113.7 C57.8,121.8 65.8,128.4 75.8,128.4 L75.8,128.4 Z" id="lense_1_31_" fill="#82BC00" sketch:type="MSShapeGroup"></path>
                <path d="M75.8,96.7 C64.9,96.7 55.4,103.9 55.3,113.7 C55.4,123.5 64.8,130.7 75.8,130.8 C86.7,130.8 96.2,123.6 96.3,113.7 C96.2,103.9 86.7,96.7 75.8,96.7 L75.8,96.7 Z M87.1,122.2 C84.3,124.5 80.3,125.9 75.8,125.9 C71.3,125.9 67.3,124.4 64.5,122.2 C61.7,119.9 60.1,116.9 60.1,113.7 C60.1,110.5 61.7,107.5 64.5,105.2 C67.3,102.9 71.3,101.4 75.8,101.4 C80.3,101.4 84.3,102.9 87.1,105.2 C89.9,107.5 91.5,110.5 91.5,113.7 C91.5,116.9 89.9,119.9 87.1,122.2 L87.1,122.2 Z" id="lense_1_30_" fill="#000000" sketch:type="MSShapeGroup"></path>
                <path d="M22.8,138.3 C22.1,136.8 21.8,135 21.8,133.3 L21.8,133.3 C21.8,130.2 22.6,126.9 24.6,124.4 L24.6,124.4 C28.1,119.7 35.3,113 55.7,112.2 L55.7,112.2 L55.9,117 C36.3,118 31.5,123.5 28.4,127.3 L28.4,127.3 C27.3,128.6 26.6,131.2 26.6,133.3 L26.6,133.3 C26.6,134.5 26.8,135.6 27.1,136.3 L27.1,136.3 C27.4,137 27.6,137 27.7,137 L27.7,137 L26.7,141.7 C24.8,141.3 23.5,139.8 22.8,138.3 L22.8,138.3 L22.8,138.3 Z" id="glasses_arm_15_" fill="#000000" sketch:type="MSShapeGroup"></path>
                <path d="M38.1,159.4 L31.6,132 C31.6,132 21.1,135.2 24,147.9 C26.9,160.5 36.9,156.4 38.1,159.4 L38.1,159.4 Z" id="Shape" fill="#FFFFFF" sketch:type="MSShapeGroup"></path>
                <path d="M28.9,157.3 C25.3,155.3 22.4,151.8 22.1,147.1 L22.1,147.1 C22,146.2 22,145.4 22,144.6 L22,144.6 C22,140.8 22.9,137.1 25.7,134.1 L25.7,134.1 C28.4,131 32.7,128.6 39,126.4 L39,126.4 L40.6,131 C34.7,133.1 31.2,135.2 29.4,137.3 L29.4,137.3 C27.6,139.4 27,141.5 26.9,144.6 L26.9,144.6 C26.9,145.2 26.9,145.9 27,146.7 L27,146.7 C27.3,149.5 28.7,151.5 31.4,153 L31.4,153 C34,154.5 37.8,155.3 41.8,155.3 L41.8,155.3 L44,155.3 L44,155.3 L44.3,160.2 C43.5,160.3 42.6,160.3 41.8,160.3 L41.8,160.3 C37,160.3 32.5,159.3 28.9,157.3 L28.9,157.3 L28.9,157.3 Z" id="Ear_black_outline_18_" fill="#000000" sketch:type="MSShapeGroup"></path>
                <path d="M39.1,209.5 C39.3,209.1 39.6,208.7 39.9,208.4 C40.2,208.1 40.6,207.8 41,207.6 C41.4,207.4 41.9,207.3 42.4,207.3 C42.9,207.3 43.4,207.4 43.8,207.6 C44.2,207.8 44.6,208 44.9,208.4 C45.2,208.7 45.5,209.1 45.7,209.5 C45.9,209.9 46,210.4 46,210.9 C46,211.4 45.9,211.9 45.7,212.3 C45.5,212.7 45.2,213.1 44.9,213.4 C44.6,213.7 44.2,214 43.8,214.1 C43.4,214.3 42.9,214.4 42.4,214.4 C41.9,214.4 41.4,214.3 41,214.1 C40.6,213.9 40.2,213.7 39.9,213.4 C39.6,213.1 39.3,212.7 39.1,212.3 C38.9,211.9 38.8,211.4 38.8,210.9 C38.8,210.4 38.9,209.9 39.1,209.5 L39.1,209.5 Z M39.7,212.1 C39.9,212.5 40.1,212.8 40.3,213.1 C40.6,213.4 40.9,213.6 41.2,213.7 C41.6,213.9 42,213.9 42.4,213.9 C42.8,213.9 43.2,213.8 43.6,213.7 C44,213.5 44.3,213.3 44.5,213.1 C44.8,212.8 45,212.5 45.1,212.1 C45.3,211.7 45.3,211.3 45.3,210.9 C45.3,210.5 45.2,210.1 45.1,209.7 C45,209.3 44.7,209 44.5,208.7 C44.2,208.4 43.9,208.2 43.6,208.1 C43.2,207.9 42.9,207.9 42.4,207.9 C42,207.9 41.6,208 41.2,208.1 C40.8,208.3 40.5,208.5 40.3,208.7 C40,209 39.8,209.3 39.7,209.7 C39.6,210.1 39.5,210.5 39.5,210.9 C39.5,211.4 39.5,211.8 39.7,212.1 L39.7,212.1 Z M42.6,208.8 C43.1,208.8 43.5,208.9 43.7,209.1 C43.9,209.3 44.1,209.6 44.1,210 C44.1,210.4 44,210.7 43.8,210.8 C43.6,211 43.3,211.1 43,211.1 L44.2,212.9 L43.5,212.9 L42.4,211.1 L41.7,211.1 L41.7,212.9 L41,212.9 L41,208.7 L42.6,208.7 L42.6,208.8 Z M42.3,210.7 L42.7,210.7 C42.8,210.7 42.9,210.7 43,210.6 C43.1,210.6 43.2,210.5 43.2,210.4 C43.3,210.3 43.3,210.2 43.3,210 C43.3,209.9 43.3,209.7 43.2,209.7 C43.1,209.6 43.1,209.6 43,209.5 C42.9,209.5 42.8,209.4 42.7,209.4 L42.4,209.4 L41.5,209.4 L41.5,210.7 L42.3,210.7 L42.3,210.7 Z" id="Shape" fill="#000000" sketch:type="MSShapeGroup"></path>
            </g>
        </g>
    </g>
</svg>