<?xml version="1.0" encoding="UTF-8" standalone="no"?>
<svg width="98px" height="141px" viewBox="0 0 98 141" version="1.1" xmlns="http://www.w3.org/2000/svg" xmlns:xlink="http://www.w3.org/1999/xlink" xmlns:sketch="http://www.bohemiancoding.com/sketch/ns">
    <!-- Generator: Sketch 3.0.4 (8053) - http://www.bohemiancoding.com/sketch -->
    <title>idea</title>
    <desc>Created with Sketch.</desc>
    <defs></defs>
    <g id="Page-1" stroke="none" stroke-width="1" fill="none" fill-rule="evenodd" sketch:type="MSPage">
        <g id="idea" sketch:type="MSArtboardGroup" stroke="#646464" stroke-width="2" stroke-linecap="round" stroke-linejoin="round">
            <path d="M61.2888692,131.539057 L80.9213231,122.354129 L59.6704634,125.236113 L78.4186071,113.614344 L57.1717414,118.384215 L75.2279027,106.294337 L53.4483655,111.03078 L74.4387168,99.5512393 L51.2380918,105.000003 C51.2380918,105.000003 -42.1318402,32.0257263 31.1844426,5.9999998 C101.458725,-18.9458812 80.5293746,85.758843 78.4186057,94.492906 C78.3272357,94.870982 52.8944237,102.451689 52.3549568,92.4248645 L68.4671409,82.170975 L48.6690056,88.7389132 L67.1137292,76.2987056 L46.615432,82.1709735 L64.818618,72.4276072" id="Path-49" sketch:type="MSShapeGroup"></path>
            <path d="M47.5331765,109.280129 C47.5331765,109.280129 57.7162021,136.919271 58.3549801,136.91927 C58.9937581,136.91927 68.9826555,136.56894 70.7288155,135.811888 C72.4749754,135.054837 77.3157182,132.873508 77.3157182,132.873508 C77.3157182,132.873508 87.191331,123.698055 87.1913314,121.388972 C87.1913317,119.079888 79.075852,98.1793594 79.075852,98.1793594" id="Path-50" sketch:type="MSShapeGroup"></path>
            <path d="M28.9335938,25.3554688 L44.8807812,53.3067818 L38.3046875,17.28125 L28.9335938,25.3554688 Z" id="Path-51" sketch:type="MSShapeGroup"></path>
            <path d="M45.0368431,60.1276018 L43.1932123,63.4832218 L48.1863791,64.1210757 L51.7380173,57.2540806 L45.0368431,60.1276018 Z" id="Path-52" sketch:type="MSShapeGroup"></path>
        </g>
    </g>
</svg>