<?xml version="1.0" encoding="UTF-8" standalone="no"?>
<svg width="703px" height="288px" viewBox="0 0 703 288" version="1.1" xmlns="http://www.w3.org/2000/svg" xmlns:xlink="http://www.w3.org/1999/xlink" xmlns:sketch="http://www.bohemiancoding.com/sketch/ns">
    <!-- Generator: Sketch 3.0.4 (8053) - http://www.bohemiancoding.com/sketch -->
    <title>mm_bg</title>
    <desc>Created with Sketch.</desc>
    <defs></defs>
    <g id="Page-1" stroke="none" stroke-width="1" fill="none" fill-rule="evenodd" sketch:type="MSPage">
        <g id="mm_bg" sketch:type="MSArtboardGroup" transform="translate(0.871028, 0.500000)" stroke="#DFDFDF" stroke-width="3" stroke-linecap="round" stroke-linejoin="round">
            <path d="M20.0000657,274.085938 L108.820378,274.085938 C108.820378,274.085938 147.187566,268.820305 132.336003,260.374993 C122.886784,265.332024 107.844014,257.136705 106.183858,240.476549 C93.1760453,236.207018 87.0703782,219.886712 106.183858,209.94364 C96.6641282,194.36718 110.461878,185.41735 121.968816,188.113274 C133.300847,161.187493 167.191472,166.406243 167.191472,184.222649 C175.445378,174.328118 203.859441,180.593743 194.191472,202.667962 C210.003972,210.402337 211.714909,227.156246 189.453191,236.042962 C202.668034,256.738274 178.000066,262.847649 167.449284,260.781243 C164.445378,268.847649 194.191472,274.011719 194.191472,274.011719 C194.191472,274.011719 373.097722,274.753913 401.203191,274.011719 C429.308659,273.269525 433.164128,266.343744 442.832097,241.605462 C452.500066,216.867181 457.421941,185.29688 437.867253,148.75 C425.718816,155.714844 408.050847,156.035159 408.050847,131.515628 C383.916048,131.589847 374.347722,103.960938 393.125066,92.1093779 C368.011784,81.515625 388.093816,44.8828116 401.203191,52.1054678 C398.103548,32.6249991 426.238347,5 442.832097,37.9570312 C449.496159,5 502.945378,11.9179698 495.019597,35.9570312 C519.054753,5 552.722722,52.4414062 533.539128,65.1054688 C533.539128,65.1054688 566.281316,101.441406 524.539128,102.960939 C553.242253,126.886719 526.836003,132.738283 510.722722,135.738283 C520.652409,157.191408 483.867253,166.34375 472.238347,148.75 C467.683659,187.925781 475.425847,220.457031 479.867253,241.605462 C484.308659,262.753894 499.836003,273.269538 516.687566,273.269531 C533.539128,273.269525 682.844022,273.269531 682.844022,273.269531" id="Path-2" sketch:type="MSShapeGroup"></path>
            <circle id="Oval-1" sketch:type="MSShapeGroup" cx="491.128972" cy="113.564486" r="7"></circle>
            <circle id="Oval-3" sketch:type="MSShapeGroup" cx="485.693458" cy="66.064486" r="5.43551402"></circle>
            <circle id="Oval-2" sketch:type="MSShapeGroup" cx="434.064486" cy="118.5" r="4.93551402"></circle>
        </g>
    </g>
</svg>