<?xml version="1.0" encoding="UTF-8" standalone="no"?>
<svg width="100px" height="36px" viewBox="0 0 100 36" version="1.1" xmlns="http://www.w3.org/2000/svg" xmlns:xlink="http://www.w3.org/1999/xlink" xmlns:sketch="http://www.bohemiancoding.com/sketch/ns">
    <!-- Generator: Sketch 3.0.4 (8053) - http://www.bohemiancoding.com/sketch -->
    <title>pause</title>
    <desc>Created with Sketch.</desc>
    <defs></defs>
    <g id="Page-1" stroke="none" stroke-width="1" fill="none" fill-rule="evenodd" sketch:type="MSPage">
        <g id="pause" sketch:type="MSArtboardGroup" fill="#000000">
            <rect id="Rectangle-2" sketch:type="MSShapeGroup" x="17.5" y="12" width="3" height="14"></rect>
            <rect id="Rectangle-3" sketch:type="MSShapeGroup" x="22.5" y="12" width="3" height="14"></rect>
            <path d="M0,9.00776211 L0,27.9922379 C0,32.4148028 3.57487841,36 7.99896416,36 L90.0010358,36 C94.4187418,36 98,32.4188675 98,27.9922379 L98,9.00776211 C98,4.58519722 94.4251216,1 90.0010358,1 L7.99896416,1 C3.58125824,1 0,4.58113254 0,9.00776211 Z M90.0010358,3 C93.3176091,3 96,5.68682145 96,9.00776211 L96,27.9922379 C96,31.3132292 93.3152397,34 90.0010358,34 L7.99896416,34 C4.68239089,34 2,31.3131786 2,27.9922379 L2,9.00776211 C2,5.68677084 4.68476027,3 7.99896416,3 L90.0010358,3 Z" id="Rectangle-5" sketch:type="MSShapeGroup"></path>
            <path d="M39.016,24.072 L39.286,24.072 C39.826,24.072 40.096,23.73 40.096,23.226 L40.096,19.806 L42.166,19.806 C45.172,19.806 46.756,18.51 46.756,16.062 C46.756,13.668 45.118,12.354 42.238,12.354 L39.232,12.354 C38.638,12.354 38.242,12.768 38.242,13.398 L38.242,23.226 C38.242,23.784 38.512,24.072 39.016,24.072 Z M40.078,13.884 L42.22,13.884 C43.984,13.884 44.902,14.64 44.902,16.098 C44.902,17.538 43.984,18.312 42.202,18.312 L40.078,18.312 L40.078,13.884 Z M50.608,24.198 C51.922,24.198 53.056,23.64 53.722,22.704 C53.74,23.748 54.19,24.09 54.82,24.09 C55.144,24.09 55.468,23.982 55.468,23.892 L55.468,18.582 C55.468,16.386 54.136,15.126 51.688,15.126 C49.24,15.126 47.98,16.368 47.98,17.196 C47.98,18.06 49.078,18.078 49.078,18.06 C49.474,17.268 50.248,16.584 51.562,16.584 C52.948,16.584 53.704,17.304 53.704,18.618 L53.704,18.798 L53.47,18.798 C49.564,18.87 47.656,19.734 47.656,21.732 C47.656,23.208 48.754,24.198 50.608,24.198 Z M51.04,22.92 C50.014,22.92 49.402,22.434 49.402,21.66 C49.402,20.49 50.698,20.022 53.218,19.932 L53.704,19.914 L53.704,20.58 C53.704,21.948 52.588,22.92 51.04,22.92 Z M64.846,24.072 C65.188,24.072 65.476,23.928 65.476,23.874 L65.476,16.116 C65.476,15.45 65.152,15.252 64.684,15.252 L64.486,15.252 C64.036,15.252 63.712,15.468 63.712,16.116 L63.712,21.138 C63.262,22.056 62.416,22.668 61.336,22.668 C60.022,22.668 59.266,21.786 59.266,20.292 L59.266,16.116 C59.266,15.45 58.942,15.252 58.474,15.252 L58.276,15.252 C57.826,15.252 57.502,15.468 57.502,16.116 L57.502,20.508 C57.502,22.668 58.546,24.216 60.832,24.216 C62.164,24.216 63.1,23.586 63.712,22.704 C63.748,23.82 64.306,24.072 64.846,24.072 Z M70.696,24.216 C72.928,24.216 74.296,23.154 74.296,21.498 C74.296,19.626 72.442,19.23 71.11,18.942 C69.706,18.636 68.95,18.456 68.95,17.664 C68.95,16.944 69.598,16.476 70.822,16.476 C71.92,16.476 72.82,16.98 73.36,17.7 C73.396,17.754 74.08,17.43 74.08,16.872 C74.08,16.062 72.964,15.126 70.75,15.126 C68.644,15.126 67.294,16.224 67.294,17.844 C67.294,19.68 69.058,20.076 70.336,20.346 C71.758,20.652 72.568,20.814 72.568,21.696 C72.568,22.416 71.884,22.866 70.66,22.866 C69.292,22.866 68.32,22.308 67.744,21.57 C67.69,21.534 67.042,21.822 67.042,22.38 C67.042,23.208 68.284,24.216 70.696,24.216 Z M80.074,24.234 C82.432,24.234 83.764,23.028 83.764,22.272 C83.764,21.516 82.864,21.354 82.828,21.39 C82.378,22.164 81.622,22.83 80.11,22.83 C78.472,22.83 77.284,21.75 77.158,20.148 L83.548,20.148 C83.962,20.148 84.088,20.004 84.088,19.626 L84.088,19.482 C84.088,16.89 82.432,15.126 79.93,15.126 C77.374,15.126 75.502,17.088 75.502,19.716 C75.502,22.416 77.338,24.234 80.074,24.234 Z M79.912,16.476 C81.352,16.476 82.27,17.448 82.36,18.942 L77.176,18.942 C77.392,17.502 78.49,16.476 79.912,16.476 Z" id="Pause" sketch:type="MSShapeGroup"></path>
        </g>
    </g>
</svg>