<?xml version="1.0" encoding="UTF-8" standalone="no"?>
<svg width="84px" height="36px" viewBox="0 0 84 36" version="1.1" xmlns="http://www.w3.org/2000/svg" xmlns:xlink="http://www.w3.org/1999/xlink" xmlns:sketch="http://www.bohemiancoding.com/sketch/ns">
    <!-- Generator: Sketch 3.0.4 (8053) - http://www.bohemiancoding.com/sketch -->
    <title>play</title>
    <desc>Created with Sketch.</desc>
    <defs></defs>
    <g id="Page-1" stroke="none" stroke-width="1" fill="none" fill-rule="evenodd" sketch:type="MSPage">
        <g id="play" sketch:type="MSArtboardGroup" fill="#000000">
            <path d="M17,11.3076923 L17,25.6923077 L28,18.5 L17,11.3076923 Z" id="Rectangle-3" sketch:type="MSShapeGroup"></path>
            <path d="M0,9.00776211 L0,27.9922379 C0,32.4148028 3.57616457,36 7.99308101,36 L74.006919,36 C78.4213757,36 82,32.4188675 82,27.9922379 L82,9.00776211 C82,4.58519722 78.4238354,1 74.006919,1 L7.99308101,1 C3.57862426,1 0,4.58113254 0,9.00776211 Z M74.006919,3 C77.3174986,3 80,5.68799975 80,9.00776211 L80,27.9922379 C80,31.3135582 77.3175429,34 74.006919,34 L7.99308101,34 C4.68250137,34 2,31.3120002 2,27.9922379 L2,9.00776211 C2,5.68644184 4.68245714,3 7.99308101,3 L74.006919,3 Z" id="Rectangle-4" sketch:type="MSShapeGroup"></path>
            <path d="M39.016,24.072 L39.286,24.072 C39.826,24.072 40.096,23.73 40.096,23.226 L40.096,19.806 L42.166,19.806 C45.172,19.806 46.756,18.51 46.756,16.062 C46.756,13.668 45.118,12.354 42.238,12.354 L39.232,12.354 C38.638,12.354 38.242,12.768 38.242,13.398 L38.242,23.226 C38.242,23.784 38.512,24.072 39.016,24.072 Z M40.078,13.884 L42.22,13.884 C43.984,13.884 44.902,14.64 44.902,16.098 C44.902,17.538 43.984,18.312 42.202,18.312 L40.078,18.312 L40.078,13.884 Z M49.222,24.072 L49.402,24.072 C49.87,24.072 50.194,23.874 50.194,23.226 L50.194,13.164 C50.194,11.922 49.618,11.634 49.06,11.634 C48.718,11.634 48.412,11.778 48.412,11.832 L48.412,23.226 C48.412,23.874 48.754,24.072 49.222,24.072 Z M54.928,24.198 C56.242,24.198 57.376,23.64 58.042,22.704 C58.06,23.748 58.51,24.09 59.14,24.09 C59.464,24.09 59.788,23.982 59.788,23.892 L59.788,18.582 C59.788,16.386 58.456,15.126 56.008,15.126 C53.56,15.126 52.3,16.368 52.3,17.196 C52.3,18.06 53.398,18.078 53.398,18.06 C53.794,17.268 54.568,16.584 55.882,16.584 C57.268,16.584 58.024,17.304 58.024,18.618 L58.024,18.798 L57.79,18.798 C53.884,18.87 51.976,19.734 51.976,21.732 C51.976,23.208 53.074,24.198 54.928,24.198 Z M55.36,22.92 C54.334,22.92 53.722,22.434 53.722,21.66 C53.722,20.49 55.018,20.022 57.538,19.932 L58.024,19.914 L58.024,20.58 C58.024,21.948 56.908,22.92 55.36,22.92 Z M64.27,27.51 C64.684,27.51 65.08,27.294 65.368,26.52 L69.454,15.738 C69.49,15.648 69.004,15.252 68.518,15.252 C68.05,15.252 67.654,15.504 67.402,16.296 L65.332,22.236 L62.992,16.26 C62.704,15.486 62.362,15.252 61.858,15.252 C61.282,15.252 60.886,15.666 60.922,15.774 L64.018,23.01 C64.162,23.37 64.378,23.478 64.774,23.514 L63.334,27.024 C63.298,27.114 63.766,27.51 64.27,27.51 L64.27,27.51 Z" id="Play" sketch:type="MSShapeGroup"></path>
        </g>
    </g>
</svg>