<?xml version="1.0" encoding="UTF-8" standalone="no"?>
<svg width="532px" height="289px" viewBox="0 0 532 289" version="1.1" xmlns="http://www.w3.org/2000/svg" xmlns:xlink="http://www.w3.org/1999/xlink" xmlns:sketch="http://www.bohemiancoding.com/sketch/ns">
    <!-- Generator: Sketch 3.0.4 (8053) - http://www.bohemiancoding.com/sketch -->
    <title>river</title>
    <desc>Created with Sketch.</desc>
    <defs></defs>
    <g id="Page-1" stroke="none" stroke-width="1" fill="none" fill-rule="evenodd" sketch:type="MSPage">
        <g id="river" sketch:type="MSArtboardGroup" stroke="#5E5E5E" stroke-linecap="round" stroke-linejoin="round">
            <path d="M22.2778752,127.859062 C22.2778752,127.859062 79.9946517,146.455729 114.967605,195.647504 C149.940559,244.839279 231.966172,271.976676 231.966172,271.976676" id="Path-33" stroke-width="3" sketch:type="MSShapeGroup"></path>
            <path d="M72,215.101258 C77.5228475,215.101258 82,215.250967 82,212.6 C82,209.949033 77.5228475,207.8 72,207.8 C66.4771525,207.8 62,209.949033 62,212.6 C62,215.250967 66.4771525,215.101258 72,215.101258 Z" id="Oval-11" sketch:type="MSShapeGroup"></path>
            <path d="M89.5,220.475944 C93.6421356,220.475944 97,220.588225 97,218.6 C97,216.611775 93.6421356,215 89.5,215 C85.3578644,215 82,216.611775 82,218.6 C82,220.588225 85.3578644,220.475944 89.5,220.475944 Z" id="Oval-12" sketch:type="MSShapeGroup"></path>
            <path d="M392.5,102.475944 C396.642136,102.475944 400,102.588225 400,100.6 C400,98.6117749 396.642136,97 392.5,97 C388.357864,97 385,98.6117749 385,100.6 C385,102.588225 388.357864,102.475944 392.5,102.475944 Z" id="Oval-14" sketch:type="MSShapeGroup"></path>
            <path d="M405,111.317296 C407.761424,111.317296 410,111.39215 410,110.066667 C410,108.741183 407.761424,107.666667 405,107.666667 C402.238576,107.666667 400,108.741183 400,110.066667 C400,111.39215 402.238576,111.317296 405,111.317296 Z" id="Oval-15" sketch:type="MSShapeGroup"></path>
            <path d="M74.25,223.148098 C76.8733526,223.148098 79,223.219209 79,221.96 C79,220.700791 76.8733526,219.68 74.25,219.68 C71.6266474,219.68 69.5,220.700791 69.5,221.96 C69.5,223.219209 71.6266474,223.148098 74.25,223.148098 Z" id="Oval-13" sketch:type="MSShapeGroup"></path>
            <path d="M158.867512,21.3224401 C158.867512,21.3224401 327.569217,71.987478 350.784903,99.8457777 C374.00059,127.704077 514.191251,182.047029 514.191251,182.047029" id="Path-34" stroke-width="3" sketch:type="MSShapeGroup"></path>
            <path d="M85.0747891,99.4648438 C85.0747891,99.4648438 146.890623,112.015625 164.929686,135.5 C182.968748,158.984375 189.301352,176.0625 217.488852,192.136719 C245.676352,208.210938 298.101568,219.210938 323.843756,239.027344" id="Path-40" stroke-width="2" opacity="0.189365672" sketch:type="MSShapeGroup"></path>
            <path d="M125.574219,54.7226565 C125.574219,54.7226565 118.140915,51.4959379 157.871094,70.613282 C197.601272,89.7306262 229.428367,101.765306 244.617191,121.539063 C262.656253,145.023438 274.136719,160.285156 302.324219,176.359375 C330.511719,192.433594 425.03125,211.617188 450.773438,231.433594" id="Path-41" stroke-width="2" opacity="0.189365672" sketch:type="MSShapeGroup"></path>
        </g>
    </g>
</svg>