<?xml version="1.0" encoding="UTF-8" standalone="no"?>
<svg width="776px" height="366px" viewBox="0 0 776 366" version="1.1" xmlns="http://www.w3.org/2000/svg" xmlns:xlink="http://www.w3.org/1999/xlink" xmlns:sketch="http://www.bohemiancoding.com/sketch/ns">
    <!-- Generator: Sketch 3.0.4 (8053) - http://www.bohemiancoding.com/sketch -->
    <title>river</title>
    <desc>Created with Sketch.</desc>
    <defs></defs>
    <g id="Page-1" stroke="none" stroke-width="1" fill="none" fill-rule="evenodd" sketch:type="MSPage">
        <g id="river" sketch:type="MSArtboardGroup" stroke-linecap="round" stroke-linejoin="round">
            <path d="M333.280591,295.984167 C342.496989,295.984167 349.968355,296.233997 349.968355,291.810126 C349.968355,287.386256 342.496989,283.8 333.280591,283.8 C324.064194,283.8 316.592828,287.386256 316.592828,291.810126 C316.592828,296.233997 324.064194,295.984167 333.280591,295.984167 Z" id="Oval-11" stroke="#5E5E5E" sketch:type="MSShapeGroup"></path>
            <path d="M362.484177,304.953315 C369.396475,304.953315 375,305.140688 375,301.822785 C375,298.504882 369.396475,295.81519 362.484177,295.81519 C355.571879,295.81519 349.968355,298.504882 349.968355,301.822785 C349.968355,305.140688 355.571879,304.953315 362.484177,304.953315 Z" id="Oval-12" stroke="#5E5E5E" sketch:type="MSShapeGroup"></path>
            <path d="M518.5,132.475944 C522.642136,132.475944 526,132.588225 526,130.6 C526,128.611775 522.642136,127 518.5,127 C514.357864,127 511,128.611775 511,130.6 C511,132.588225 514.357864,132.475944 518.5,132.475944 Z" id="Oval-14" stroke="#5E5E5E" sketch:type="MSShapeGroup"></path>
            <path d="M531,141.317296 C533.761424,141.317296 536,141.39215 536,140.066667 C536,138.741183 533.761424,137.666667 531,137.666667 C528.238576,137.666667 526,138.741183 526,140.066667 C526,141.39215 528.238576,141.317296 531,141.317296 Z" id="Oval-15" stroke="#5E5E5E" sketch:type="MSShapeGroup"></path>
            <path d="M328.691456,326.100306 C333.069245,326.100306 336.618144,326.218975 336.618144,324.117637 C336.618144,322.016298 333.069245,320.312826 328.691456,320.312826 C324.313668,320.312826 320.764769,322.016298 320.764769,324.117637 C320.764769,326.218975 324.313668,326.100306 328.691456,326.100306 Z" id="Oval-13" stroke="#5E5E5E" sketch:type="MSShapeGroup"></path>
            <path d="M761.203125,232.082031 C692.847656,196.0625 539.550095,161.90344 421.875,155.808594 C304.199905,149.713747 326.217619,159.525205 226.566406,122.324219 C126.915194,85.1232328 119.03125,33 49.25,23.5898438" id="Path-43" stroke="#646464" stroke-width="2" sketch:type="MSShapeGroup"></path>
            <path d="M575.601562,352.011719 C575.601562,352.011719 502.704671,324.50408 382.5,269.699219 C262.295329,214.894357 228.152351,248.708461 135.007812,185.011719 C41.8632739,121.314977 90.4726563,34.7382812 24.0273438,27.8125" id="Path-42" stroke="#646464" stroke-width="2" sketch:type="MSShapeGroup"></path>
            <path d="M495.441283,143 L494.52954,138.897155" id="Line" stroke="#5E5E5E" sketch:type="MSShapeGroup"></path>
            <path d="M498.5,142.544128 L498.5,138.897155" id="Line" stroke="#5E5E5E" sketch:type="MSShapeGroup"></path>
            <path d="M500.632385,143 L502,139.353026" id="Line" stroke="#5E5E5E" sketch:type="MSShapeGroup"></path>
            <path d="M584.044972,153.923156 L607.979429,155.774784 C607.979429,155.774784 604.669202,141.424362 592.227776,141.424362 C579.78635,141.424362 584.044972,153.923156 584.044972,153.923156 Z" id="Path-87" stroke="#5E5E5E" sketch:type="MSShapeGroup"></path>
            <path d="M565.501586,154.703115 L576.990126,155.591896 C576.990126,155.591896 575.401217,148.703694 569.429332,148.703694 C563.457448,148.703694 565.501586,154.703115 565.501586,154.703115 Z" id="Path-88" stroke="#5E5E5E" sketch:type="MSShapeGroup"></path>
            <path d="M140.5,234 C142.985281,234 145,232.209139 145,230 C145,227.790861 143.766335,226.434409 141.281053,226.434409 C138.795772,226.434409 136.390211,227.790861 136.390211,230 C136.390211,232.209139 138.014719,234 140.5,234 Z" id="Oval-30" stroke="#646464" sketch:type="MSShapeGroup"></path>
            <path d="M137.476687,232.896157 L94.067582,203.345763 C94.067582,203.345763 93.3358277,201.617537 95.752697,200.613502 C98.1695663,199.609467 99.0514529,200.613502 99.0514529,200.613502 L142.769522,226.624627" id="Path-89" stroke="#646464" sketch:type="MSShapeGroup"></path>
            <path d="M128.131073,234.924651 C130.366131,234.924651 132.178005,233.354195 132.178005,231.416938 C132.178005,229.479682 131.068547,228.290171 128.833488,228.290171 C126.598429,228.290171 124.435065,229.479682 124.435065,231.416938 C124.435065,233.354195 125.896014,234.924651 128.131073,234.924651 Z" id="Oval-31" stroke="#646464" sketch:type="MSShapeGroup" transform="translate(128.131073, 231.416938) rotate(4.000000) translate(-128.131073, -231.416938) "></path>
            <path d="M126.286161,232.605366 L87.2475632,206.691791 C87.2475632,206.691791 86.5894832,205.176261 88.7630178,204.295795 C90.9365524,203.415328 91.729649,204.295795 91.729649,204.295795 L131.046105,227.105685" id="Path-90" stroke="#646464" sketch:type="MSShapeGroup" transform="translate(109.220082, 218.227113) rotate(4.000000) translate(-109.220082, -218.227113) "></path>
            <path d="M115.843346,234.385064 C117.828299,234.385064 119.437421,232.990344 119.437421,231.269869 C119.437421,229.549395 118.452113,228.492991 116.46716,228.492991 C114.482208,228.492991 112.560927,229.549395 112.560927,231.269869 C112.560927,232.990344 113.858393,234.385064 115.843346,234.385064 Z" id="Oval-31" stroke="#646464" sketch:type="MSShapeGroup" transform="translate(115.843346, 231.269869) rotate(8.000000) translate(-115.843346, -231.269869) "></path>
            <path d="M115.062912,231.182298 L80.3927858,208.168486 C80.3927858,208.168486 79.8083458,206.822546 81.7386589,206.040605 C83.6689721,205.258664 84.3733201,206.040605 84.3733201,206.040605 L119.290211,226.298037" id="Path-90" stroke="#646464" sketch:type="MSShapeGroup" transform="translate(99.906550, 218.412990) rotate(8.000000) translate(-99.906550, -218.412990) "></path>
        </g>
    </g>
</svg>