<?xml version="1.0" encoding="UTF-8" standalone="no"?>
<svg width="190px" height="109px" viewBox="0 0 190 109" version="1.1" xmlns="http://www.w3.org/2000/svg" xmlns:xlink="http://www.w3.org/1999/xlink" xmlns:sketch="http://www.bohemiancoding.com/sketch/ns">
    <!-- Generator: Sketch 3.0.4 (8053) - http://www.bohemiancoding.com/sketch -->
    <title>small_biz</title>
    <desc>Created with Sketch.</desc>
    <defs></defs>
    <g id="Page-1" stroke="none" stroke-width="1" fill="none" fill-rule="evenodd" sketch:type="MSPage">
        <g id="small_biz" sketch:type="MSArtboardGroup" stroke="#646464" stroke-width="2" stroke-linecap="round" stroke-linejoin="round">
            <path d="M18.8174508,97.2865629 L17.7785501,9.97789605 L166.267532,6.34994549 L168.159424,93.0626114 L156.728783,94.0987782 L155.689882,60.1923405 L131.297588,60.1923405 L132.333754,92.2068853 L115.068865,92.9067763 L116.105032,27.2181795 L32.6074904,27.2181795 L32.6074904,97.2865629 L18.8174508,97.2865629 Z" id="Path-65" sketch:type="MSShapeGroup"></path>
            <path d="M56.8035367,47.4577913 C56.8035367,47.4577913 43.5572019,48.6006557 43.5572017,52.6606999 C43.5572015,56.7207442 56.3733227,53.9422618 56.3733234,58.2176646 C56.373324,62.4930674 43.7145599,61.8237907 43.7145599,61.8237907" id="Path-66" sketch:type="MSShapeGroup"></path>
            <path d="M59.0801875,60.7091699 L63.0348217,50.9822122 L63.80043,55.735742 L67.6592371,52.292522 L67.8508914,59.4039035" id="Path-67" sketch:type="MSShapeGroup"></path>
            <path d="M71.1695361,60.2355821 L75.664837,47.0991961 L78.9169071,59.9249005" id="Path-68" sketch:type="MSShapeGroup"></path>
            <path d="M73.206619,55.8411518 L77.644928,55.7453247" id="Path-69" sketch:type="MSShapeGroup"></path>
            <path d="M82.006071,48.0509108 L83.345129,60.9673988 L90.1740727,60.6804217" id="Path-70" sketch:type="MSShapeGroup"></path>
            <path d="M90.2366125,47.5722795 L91.6039143,57.3330289 L99.1601354,57.3330289" id="Path-71" sketch:type="MSShapeGroup"></path>
            <path d="M131.837186,34.8756896 C131.837186,34.8756896 131.163369,40.1073464 137.667005,40.1073464 C144.170642,40.1073463 143.730845,34.076794 143.730845,34.076794" id="Path-72" sketch:type="MSShapeGroup"></path>
            <ellipse id="Oval-28" sketch:type="MSShapeGroup" cx="135.231741" cy="30.1462391" rx="1.74972747" ry="2.44961846"></ellipse>
            <ellipse id="Oval-29" sketch:type="MSShapeGroup" cx="140.830868" cy="29.4463481" rx="1.74972747" ry="2.44961846"></ellipse>
        </g>
    </g>
</svg>