<svg width="104" height="36" viewBox="0 0 104 36" xmlns="http://www.w3.org/2000/svg"><title>back_top</title><desc>Created with Sketch.</desc><g fill="none"><g><rect fill="#fff" y="1" width="103" height="35" rx="8"/><path d="M23.299 16.998l5.442 2.155-7.097-8.672-7.224 8.672 5.442-2.117v9.813h3.437v-9.851z" fill="#000"/><path d="M0 9.008v18.984c0 4.423 3.575 8.008 7.997 8.008h87.007c4.416 0 7.997-3.581 7.997-8.008v-18.984c0-4.423-3.575-8.008-7.997-8.008h-87.007c-4.416 0-7.997 3.581-7.997 8.008zm95.003-6.008c3.314 0 5.997 2.687 5.997 6.008v18.984c0 3.321-2.684 6.008-5.997 6.008h-87.007c-3.314 0-5.997-2.687-5.997-6.008v-18.984c0-3.321 2.684-6.008 5.997-6.008h87.007z" fill="#000"/><path d="M38.224 14.01h3.186v9.216c0 .558.27.846.792.846h.252c.54 0 .828-.288.828-.846v-9.216h3.186c.558 0 .846-.288.846-.792v-.09c0-.504-.288-.774-.846-.774h-8.244c-.558 0-.864.27-.864.774v.09c0 .504.306.792.864.792zm12.942 10.224c2.664 0 4.536-1.89 4.536-4.536 0-2.664-1.872-4.572-4.518-4.572-2.682 0-4.554 1.89-4.554 4.536 0 2.682 1.854 4.572 4.536 4.572zm0-1.458c-1.656 0-2.898-1.332-2.898-3.114 0-1.782 1.242-3.078 2.898-3.078 1.674 0 2.88 1.314 2.88 3.114 0 1.764-1.224 3.078-2.88 3.078zm9.396-8.766h3.186v9.216c0 .558.27.846.792.846h.252c.54 0 .828-.288.828-.846v-9.216h3.186c.558 0 .846-.288.846-.792v-.09c0-.504-.288-.774-.846-.774h-8.244c-.558 0-.864.27-.864.774v.09c0 .504.306.792.864.792zm12.942 10.224c2.664 0 4.536-1.89 4.536-4.536 0-2.664-1.872-4.572-4.518-4.572-2.682 0-4.554 1.89-4.554 4.536 0 2.682 1.854 4.572 4.536 4.572zm0-1.458c-1.656 0-2.898-1.332-2.898-3.114 0-1.782 1.242-3.078 2.898-3.078 1.674 0 2.88 1.314 2.88 3.114 0 1.764-1.224 3.078-2.88 3.078zm7.002 4.752h.198c.45 0 .792-.198.792-.846v-4.068c.486.864 1.53 1.62 2.97 1.62 2.394 0 4.104-1.854 4.104-4.572 0-2.754-1.728-4.536-4.05-4.536-1.386 0-2.376.612-3.042 1.638-.018-1.224-.594-1.512-1.116-1.512-.36 0-.648.144-.648.198v11.232c0 .648.324.846.792.846zm3.636-4.77c-1.44 0-2.664-1.08-2.664-2.538v-1.818c.45-1.098 1.368-1.8 2.7-1.8 1.548 0 2.664 1.278 2.664 3.078 0 1.836-1.08 3.078-2.7 3.078z" fill="#000"/></g></g></svg>