<svg width="115" height="259" viewBox="0 0 115 259" xmlns="http://www.w3.org/2000/svg"><title>big_biz</title><desc>Created with Sketch.</desc><g stroke="#646464" stroke-width="2" stroke-linecap="round" stroke-linejoin="round" fill="none" fill-rule="evenodd"><path d="M29.075 249.339l-16.905-176.299 32.692-3.466 2.97-60.953 10.221 55.978c6.797-.294 42.936-1.856 42.936-1.856l-9.231 185.778-20.613-.989-.817-15.542h-22.124l-1.164 17.348h-17.964z"/><path d="M31.69 91.611l1.252 20.672s13.07-.288 13.07-6.268c0-5.98-8.398-4.177-8.398-4.177s8.417-2.424 7.502-6.939c-.915-4.515-13.426-3.288-13.426-3.288z"/><path d="M56.038 90.929l.25 18.536"/><path d="M79.817 97.379l-1.791-6.313-9.819-.25-3.094 9.093 3.675 8.392 10.07-.125s1.547-6.482 1.547-6.482-8.153-1.296-8.153-1.296"/><path d="M44.253 133.228l21.689-1.283-1.832 48.326h-15.523l-4.334-47.043z"/><path d="M50.586 189.103l.806 10.4h8.943l2.447-10.345-12.196-.055z"/></g></svg>