<svg width="703" height="288" viewBox="0 0 703 288" xmlns="http://www.w3.org/2000/svg"><title>gd_bg</title><desc>Created with Sketch.</desc><g stroke="#5E5E5E" stroke-width="3" stroke-linecap="round" stroke-linejoin="round" fill="none" fill-rule="evenodd"><path d="M14.535 276.72h32.289v-86.393h16.177l6.769-64.903 12.12 2.976 5.284 76.713 13.215-1.637 4.727-71.558h12.585l.516 71.363 37.848 1.766-.409 65.768 9.503-2.96 4.595-63.152h27.169l-3.566-145.261h8.701l5.203-48.316 7.409 47.367h10.616l7.964 95.244 54.941-4.254 8.62 56.299 51.474-.328-5.137-151.378h14.79l-.004-11.154h7.901l-.099-13.969 10.631-1.095-.982 14.769 11.171.654-2.208 10.371h17.255l-9.175 180.116 45.928 1.308.752-89.126 36.377-2.387.982-54.351h3.996l4.395-40.351 1.194 39.844h7.002l-2.748 137.752 39.484 1.963-1.456-83.451 60.667-6.541-3.386 45.618 24.126 5.348-.671-110.945 70.349 4.138-24.944 175.652h32.729"/><path d="M204.007 84.05l.583 12.144 7.498-.779-.583-15.428-7.498 4.063z" fill="#C4C4C4"/><path d="M355.742 80.853v17.156h7.714v-18.949l-7.714 1.794z" fill="#C4C4C4"/><path d="M378.56 136.752l.15 12.425h5.36v-13.268l-5.51.843z" fill="#C4C4C4"/><path d="M452.244 164.931l1.016 13.979 8.557-.583v-15.579l-9.574 2.183z" fill="#C4C4C4"/><path d="M545.247 160.241v17.005l6.958-.864v-21.328l-6.958 5.187z" fill="#C4C4C4"/><path d="M626.517 118.493l.15 17.352 8.211-.433v-21.909l-8.361 4.991z" fill="#C4C4C4"/><path d="M262.91 172.579v10.718h6.224v-16.292l-6.224 5.574z" fill="#C4C4C4"/><path d="M64.914 229.321v15.171h12.942l1.73-17.461-14.672 2.29z" fill="#C4C4C4"/><path d="M643.912 153.974v14.715h8.234v-15.861l-8.234 1.146z" fill="#C4C4C4"/></g></svg>