<svg width="310" height="173" viewBox="0 0 310 173" xmlns="http://www.w3.org/2000/svg"><title>gd_car</title><desc>Created with Sketch.</desc><g stroke="#DFDFDF" stroke-width="3" stroke-linecap="round" stroke-linejoin="round" fill="none" fill-rule="evenodd"><path d="M98.744 70.292s36.549 4.805 76.364 1.777c39.816-3.029 70.115-9.368 70.115-9.368l-36.132-35.253-108.283 5.703-2.064 37.141z"/><path d="M52.61 53.949s14.173-25.887 26.48-25.887c12.306 0 11.582 10.201 11.582 10.201l-.877 29.594-37.185-13.907z"/><path d="M13.977 70.445s4.694-19.326 12.614-19.326c7.92 0 20.49-5.134 20.49-5.134s14.042-19.786 25.755-22.419c11.714-2.633 77.44-6.561 95.364-6.561 17.924 0 42.888 5.77 42.888 5.77l43.304 42.516s38.786 8.315 35.716 19.613c-3.07 11.298-22.486 18.382-72.241 21.827-49.755 3.445-101.034 6.165-115.666-1.447-.037-.014-6.791-12.041-17.783-12.041-3.049.13-53.353-18.845-53.353-18.845s-3.875-8.323-11.576-6.113"/><path d="M13.274 75.119s11.54-5.266 14.173 9.937c2.633 15.203.044 32.634.044 32.634l45.588 24.469s1.802-51.841 18.004-41.561c16.203 10.28 12.904 59.244 12.904 59.244l33.874 3.225s11.89-10.444 23.123-10.444 121.973-6.58 121.973-6.58l8.491 6.888s7.02-6.888 7.02-36.724c0-29.837-6.735-33.52-6.735-33.52"/><path d="M182.924 118.731l9.063 23.824 59.899-3.554 5.955-26.588-74.916 6.319z"/><path d="M121.89 116.339l.44 9.236 50.347 3.073-7.022-10.728-43.765-1.58z"/><path d="M268.882 110.175l-5.784 10.398 29.317-8.051.666-13.468-24.199 11.122z"/><path d="M89.47 161.249c5.561 0 8.716-5.884 8.716-21.749 0-15.865-4.442-33.656-10.003-33.656s-9.167 13.966-9.167 29.831 4.894 25.574 10.455 25.574z"/><path d="M17.108 121.388c3.925 0 6.643-8.246 6.643-20.431s-2.717-21.415-6.643-21.415c-3.925 0-7.108 9.23-7.108 21.415 0 12.185 3.182 20.431 7.108 20.431z"/><path d="M150.056 160.481l134.437-8.644M191.91 123.451l55.818-4.136"/><path d="M194.023 129.097l52.464-3.056"/><path d="M196.55 135.157l49.704-3.3"/></g></svg>