<svg width="258" height="128" viewBox="0 0 258 128" xmlns="http://www.w3.org/2000/svg"><title>gd_plate</title><desc>Created with Sketch.</desc><g fill="none"><g stroke="#5E5E5E" stroke-width="3" stroke-linecap="round" stroke-linejoin="round"><path d="M9.932 48.773l10.404 70.117 220.845-37.336-13.895-74.117-217.355 41.336z"/><path d="M53.467 55.496l-19.634 3.307 4.911 40.756 23.354-3.836-4.147-19.098-13.111 2.8"/><path d="M65.039 54.184l4.275 40.087 21.527-4.742-6.402-39.507-19.4 4.161z"/><path d="M94.774 48.13l4.775 40.554 13.742-2.523 4.346-8.539-3.331-25.792-5.354-5.973-14.177 2.273z"/><path d="M145.774 38.13l4.775 40.554 13.742-2.523 4.346-8.539-3.331-25.792-5.354-5.973-14.177 2.273z"/><path d="M171.774 33.13l4.775 40.554 13.742-2.523 4.346-8.539-3.331-25.792-5.354-5.973-14.177 2.273z"/><path d="M133.106 73.907l-10.977 11.386 7.493-44.134 16.569 40.695-13.084-7.947z"/><path d="M196.78 28.94s12.419 16.542 12.419 16.542 7.345-20.654 7.345-20.654l-7.345 20.654 3.906 23.99"/></g></g></svg>