<svg width="98" height="141" viewBox="0 0 98 141" xmlns="http://www.w3.org/2000/svg"><title>idea</title><desc>Created with Sketch.</desc><g fill="none"><g stroke="#646464" stroke-width="2" stroke-linecap="round" stroke-linejoin="round"><path d="M61.289 131.539l19.632-9.185-21.251 2.882 18.748-11.622-21.247 4.77 18.056-12.09-21.78 4.736 20.99-11.48-23.201 5.449s-93.37-72.974-20.054-99c70.274-24.946 49.345 79.759 47.234 88.493-.091.378-25.524 7.959-26.064-2.068l16.112-10.254-19.798 6.568 18.445-12.44-20.498 5.872 18.203-9.743"/><path d="M47.533 109.28s10.183 27.639 10.822 27.639c.639 0 10.628-.35 12.374-1.107 1.746-.757 6.587-2.938 6.587-2.938s9.876-9.175 9.876-11.485c0-2.309-8.115-23.21-8.115-23.21"/><path d="M28.934 25.355l15.947 27.951-6.576-36.026-9.371 8.074z"/><path d="M45.037 60.128l-1.844 3.356 4.993.638 3.552-6.867-6.701 2.874z"/></g></g></svg>