<svg width="100" height="36" viewBox="0 0 100 36" xmlns="http://www.w3.org/2000/svg"><title>pause</title><desc>Created with Sketch.</desc><g fill="none"><g><rect fill="#fff" y="1" width="98" height="35" rx="8"/><path fill="#000" d="M17.5 12h3v14h-3z"/><path fill="#000" d="M22.5 12h3v14h-3z"/><path d="M0 9.008v18.984c0 4.423 3.575 8.008 7.999 8.008h82.002c4.418 0 7.999-3.581 7.999-8.008v-18.984c0-4.423-3.575-8.008-7.999-8.008h-82.002c-4.418 0-7.999 3.581-7.999 8.008zm90.001-6.008c3.317 0 5.999 2.687 5.999 6.008v18.984c0 3.321-2.685 6.008-5.999 6.008h-82.002c-3.317 0-5.999-2.687-5.999-6.008v-18.984c0-3.321 2.685-6.008 5.999-6.008h82.002z" fill="#000"/><path d="M39.016 24.072h.27c.54 0 .81-.342.81-.846v-3.42h2.07c3.006 0 4.59-1.296 4.59-3.744 0-2.394-1.638-3.708-4.518-3.708h-3.006c-.594 0-.99.414-.99 1.044v9.828c0 .558.27.846.774.846zm1.062-10.188h2.142c1.764 0 2.682.756 2.682 2.214 0 1.44-.918 2.214-2.7 2.214h-2.124v-4.428zm10.53 10.314c1.314 0 2.448-.558 3.114-1.494.018 1.044.468 1.386 1.098 1.386.324 0 .648-.108.648-.198v-5.31c0-2.196-1.332-3.456-3.78-3.456-2.448 0-3.708 1.242-3.708 2.07 0 .864 1.098.882 1.098.864.396-.792 1.17-1.476 2.484-1.476 1.386 0 2.142.72 2.142 2.034v.18h-.234c-3.906.072-5.814.936-5.814 2.934 0 1.476 1.098 2.466 2.952 2.466zm.432-1.278c-1.026 0-1.638-.486-1.638-1.26 0-1.17 1.296-1.638 3.816-1.728l.486-.018v.666c0 1.368-1.116 2.34-2.664 2.34zm13.806 1.152c.342 0 .63-.144.63-.198v-7.758c0-.666-.324-.864-.792-.864h-.198c-.45 0-.774.216-.774.864v5.022c-.45.918-1.296 1.53-2.376 1.53-1.314 0-2.07-.882-2.07-2.376v-4.176c0-.666-.324-.864-.792-.864h-.198c-.45 0-.774.216-.774.864v4.392c0 2.16 1.044 3.708 3.33 3.708 1.332 0 2.268-.63 2.88-1.512.036 1.116.594 1.368 1.134 1.368zm5.85.144c2.232 0 3.6-1.062 3.6-2.718 0-1.872-1.854-2.268-3.186-2.556-1.404-.306-2.16-.486-2.16-1.278 0-.72.648-1.188 1.872-1.188 1.098 0 1.998.504 2.538 1.224.036.054.72-.27.72-.828 0-.81-1.116-1.746-3.33-1.746-2.106 0-3.456 1.098-3.456 2.718 0 1.836 1.764 2.232 3.042 2.502 1.422.306 2.232.468 2.232 1.35 0 .72-.684 1.17-1.908 1.17-1.368 0-2.34-.558-2.916-1.296-.054-.036-.702.252-.702.81 0 .828 1.242 1.836 3.654 1.836zm9.378.018c2.358 0 3.69-1.206 3.69-1.962s-.9-.918-.936-.882c-.45.774-1.206 1.44-2.718 1.44-1.638 0-2.826-1.08-2.952-2.682h6.39c.414 0 .54-.144.54-.522v-.144c0-2.592-1.656-4.356-4.158-4.356-2.556 0-4.428 1.962-4.428 4.59 0 2.7 1.836 4.518 4.572 4.518zm-.162-7.758c1.44 0 2.358.972 2.448 2.466h-5.184c.216-1.44 1.314-2.466 2.736-2.466z" fill="#000"/></g></g></svg>