<svg width="776" height="366" viewBox="0 0 776 366" xmlns="http://www.w3.org/2000/svg"><title>river</title><desc>Created with Sketch.</desc><g stroke-linecap="round" stroke-linejoin="round" fill="none" fill-rule="evenodd"><path d="M333.281 295.984c9.216 0 16.688.25 16.688-4.174s-7.471-8.01-16.688-8.01c-9.216 0-16.688 3.586-16.688 8.01 0 4.424 7.471 4.174 16.688 4.174z" stroke="#5E5E5E"/><path d="M362.484 304.953c6.912 0 12.516.187 12.516-3.131 0-3.318-5.604-6.008-12.516-6.008s-12.516 2.69-12.516 6.008 5.604 3.131 12.516 3.131z" stroke="#5E5E5E"/><path d="M518.5 132.476c4.142 0 7.5.112 7.5-1.876s-3.358-3.6-7.5-3.6c-4.142 0-7.5 1.612-7.5 3.6s3.358 1.876 7.5 1.876z" stroke="#5E5E5E"/><path d="M531 141.317c2.761 0 5 .075 5-1.251 0-1.325-2.239-2.4-5-2.4s-5 1.075-5 2.4 2.239 1.251 5 1.251z" stroke="#5E5E5E"/><path d="M328.691 326.1c4.378 0 7.927.119 7.927-1.983 0-2.101-3.549-3.805-7.927-3.805s-7.927 1.703-7.927 3.805c0 2.101 3.549 1.983 7.927 1.983z" stroke="#5E5E5E"/><path d="M761.203 232.082c-68.355-36.02-221.653-70.179-339.328-76.273-117.675-6.095-95.657 3.717-195.309-33.484-99.651-37.201-107.535-89.324-177.316-98.734" stroke="#646464" stroke-width="2"/><path d="M575.602 352.012s-72.897-27.508-193.102-82.313c-120.205-54.805-154.348-20.991-247.492-84.688-93.145-63.697-44.535-150.273-110.98-157.199" stroke="#646464" stroke-width="2"/><path d="M495.441 143l-.912-4.103M498.5 142.544v-3.647M500.632 143l1.368-3.647" stroke="#5E5E5E"/><path d="M584.045 153.923l23.934 1.852s-3.31-14.35-15.752-14.35c-12.441 0-8.183 12.499-8.183 12.499z" stroke="#5E5E5E"/><path d="M565.502 154.703l11.489.889s-1.589-6.888-7.561-6.888c-5.972 0-3.928 5.999-3.928 5.999z" stroke="#5E5E5E"/><path d="M140.5 234c2.485 0 4.5-1.791 4.5-4s-1.234-3.566-3.719-3.566-4.891 1.356-4.891 3.566c0 2.209 1.625 4 4.11 4z" stroke="#646464"/><path d="M137.477 232.896l-43.409-29.55s-.732-1.728 1.685-2.732c2.417-1.004 3.299 0 3.299 0l43.718 26.011" stroke="#646464"/><g stroke="#646464"><path d="M127.891 234.927c2.231.156 4.149-1.284 4.284-3.217.136-1.933-.888-3.198-3.119-3.355-2.231-.156-4.473.879-4.609 2.813-.136 1.933 1.212 3.603 3.443 3.759z" id="Oval-31"/><path d="M125.245 233.771l-37.147-28.594s-.551-1.559 1.68-2.285c2.231-.727 2.961.208 2.961.208l37.641 25.516" id="Path-90"/></g><g stroke="#646464"><path d="M115.408 234.348c1.965.276 3.752-.881 3.991-2.584.239-1.703-.589-2.886-2.555-3.162-1.965-.276-4.014.503-4.253 2.206-.239 1.703.851 3.264 2.817 3.54z"/><path d="M113.137 233.161l-31.125-27.603s-.392-1.414 1.628-1.92 2.608.366 2.608.366l31.752 24.908"/></g></g></svg>